<svg width="100" height="100" viewBox="0 0 100 100" xmlns="http://www.w3.org/2000/svg">
<path fill-rule="evenodd" clip-rule="evenodd" d="M9.34315 9.34315C12.4673 6.21895 17.5327 6.21895 20.6569 9.34315L90.6569 79.3431C93.7811 82.4673 93.7811 87.5327 90.6569 90.6569C87.5327 93.7811 82.4673 93.7811 79.3431 90.6569L9.34315 20.6569C6.21895 17.5327 6.21895 12.4673 9.34315 9.34315Z"/>
<path fill-rule="evenodd" clip-rule="evenodd" d="M90.6569 9.34315C93.7811 12.4673 93.7811 17.5327 90.6569 20.6569L20.6569 90.6569C17.5327 93.7811 12.4673 93.7811 9.34315 90.6569C6.21895 87.5327 6.21895 82.4673 9.34315 79.3431L79.3431 9.34315C82.4673 6.21895 87.5327 6.21895 90.6569 9.34315Z"/>
</svg>
