<svg width="39" height="21" viewBox="0 0 39 21" xmlns="http://www.w3.org/2000/svg">
<path d="M0 6V4.5L4.5 5.96046e-08L17 0V6C17 6 2.02614 6 0 6Z"/>
<path fill-rule="evenodd" clip-rule="evenodd" d="M0 8H11C16 8 19 10.5 19 14C19 17.5 17 21 11 21H0V8ZM6.5 13V16H10C11 16 11.5 15.5 11.5 14.5C11.5 13.5 11 13 10 13H6.5Z"/>
<path fill-rule="evenodd" clip-rule="evenodd" d="M26.5 6H20V0C20 0 29.4927 5.96046e-08 31 5.96046e-08C37 0 38.5 3 38.5 6C38.5 7.5 38 9 36.5 10C37.5 10.5 39 11.5 39 14.5C39 18 36.5 21 30.5 21C28.9783 21 20 21 20 21V8H30C31 8 31.5 7.5 31.5 6.5C31.5 5.5 31 5 30 5H26.5V6ZM30 16H26.5V13H30C31 13 31.5 13.5 31.5 14.5C31.5 15.5 31 16 30 16Z"/>
</svg>
