<svg width="642" height="642" viewBox="0 0 642 642" xmlns="http://www.w3.org/2000/svg">
<path d="M297.335 0.800169C234.135 6.66686 176.534 28.5336 126.934 65.6005C109.734 78.5339 77.7338 110.667 64.8004 128.001C31.3336 172.934 10.4001 224.668 2.40011 281.335C-0.133236 300.002 0.266766 346.269 3.06678 365.335C5.86679 383.335 9.33348 398.802 14.2668 415.202C18.6669 429.869 20.6669 431.202 30.1336 426.136C44.5336 418.669 65.8671 405.735 67.2004 403.735C68.1338 402.269 67.4671 397.469 64.9337 387.202C53.2004 339.868 53.6004 296.802 66.1338 250.668C80.8005 196.534 115.067 145.868 160.001 111.467C250.268 42.5337 372.402 38.1337 466.936 100.401L481.336 109.867L476.669 118.134C474.136 122.667 472.002 128.001 472.002 129.867C472.002 136.401 474.269 136.401 518.936 130.001C561.47 123.867 564.003 123.201 564.003 117.734C564.003 116.801 557.069 98.534 548.536 77.2005C532.136 36.4003 530.803 34.1337 524.669 37.867C523.203 38.8004 519.469 44.0004 516.403 49.4671C513.336 54.9338 510.136 59.4671 509.469 59.7338C508.803 60.0005 503.869 57.2004 498.403 53.6004C460.002 27.7336 413.869 10.2669 366.669 3.33351C352.935 1.3335 309.202 -0.266503 297.335 0.800169Z"/>
<path d="M204.668 156.801C189.734 158.934 190.268 160.268 216.801 186.801L238.935 208.934L234.668 224.801C232.401 233.468 229.735 241.335 228.935 242.135C228.001 242.935 220.135 245.601 211.468 247.868L195.468 252.135L173.334 230.001C150.801 207.468 146.534 204.668 144.801 210.934C144.401 212.668 144.001 219.335 144.001 226.001C144.134 259.735 168.401 287.335 202.401 292.268C211.868 293.602 215.068 293.602 223.735 291.735C229.335 290.535 234.935 289.202 236.001 288.802C237.335 288.268 253.868 303.868 289.602 339.602L341.335 391.335L339.202 398.002C335.735 408.535 336.002 428.002 339.868 439.069C349.602 467.602 374.135 485.469 404.002 485.602C428.002 485.869 427.869 484.669 400.135 456.802L377.469 434.002L381.735 417.735C384.135 408.669 386.669 400.802 387.335 400.269C388.135 399.602 395.869 397.069 404.535 394.802L420.536 390.535L442.669 412.669C464.669 434.536 469.469 438.002 471.202 432.269C473.069 425.736 473.469 416.669 472.002 407.869C465.869 367.869 426.402 341.735 387.735 351.868L378.802 354.135L326.802 302.135L274.935 250.001L276.935 244.668C278.002 241.735 279.202 235.068 279.602 230.001C282.535 192.668 254.535 160.134 216.668 156.934C212.268 156.668 206.934 156.534 204.668 156.801ZM327.868 168.268C316.402 172.268 312.002 175.334 312.002 179.068C312.002 183.468 313.068 184.401 324.668 189.868C344.935 199.334 356.402 208.268 385.335 236.935L412.802 263.868L429.336 247.335L446.002 230.668L422.669 207.334C409.869 194.401 396.135 181.734 392.269 179.201C373.469 166.668 346.002 162.001 327.868 168.268Z"/>
<path d="M597.336 225.068C586.003 231.601 576.269 237.868 575.469 238.935C574.536 240.401 575.203 245.335 577.736 255.468C579.736 263.468 582.27 276.268 583.603 284.001C586.536 303.202 586.536 339.868 583.47 359.335C574.269 418.135 548.403 469.069 507.202 509.603C484.269 532.003 463.736 546.536 435.869 559.869C394.702 579.735 349.079 588.557 303.474 585.472C257.869 582.386 213.85 567.499 175.734 542.269L161.334 532.803L166.001 524.536C171.334 515.203 171.868 510.136 168.134 508.003C166.134 507.069 154.667 508.269 123.734 512.803C81.4671 518.936 78.6671 519.736 78.6671 524.936C78.6671 525.869 85.6005 544.136 94.1339 565.336C104.667 591.736 110.401 604.536 112.267 605.47C116.267 607.603 120.401 604.003 126.667 592.67C129.734 587.203 132.801 582.67 133.467 582.67C134.134 582.67 137.601 584.803 141.201 587.336C177.334 612.67 228.801 632.403 277.201 639.603C298.668 642.803 344.268 642.67 365.335 639.603C469.602 623.736 554.803 564.27 604.936 472.002C617.336 449.469 628.936 417.335 635.07 389.335C640.536 364.535 642.003 350.535 641.87 320.668C641.87 290.668 640.003 274.001 633.87 248.001C627.736 221.735 624.136 213.334 619.336 213.334C618.403 213.334 608.536 218.668 597.336 225.068Z"/>
<path d="M444.269 263.068L416.002 291.335L428.669 304.002L441.336 316.668L470.269 287.601L499.336 258.668L487.336 246.668C480.802 240.135 474.802 234.668 474.002 234.668C473.202 234.668 459.869 247.468 444.269 263.068ZM344.268 257.735C336.135 266.001 329.335 273.335 329.335 274.001C329.335 274.801 334.802 280.801 341.335 287.335L353.335 299.335L369.335 283.335L385.335 267.335L373.069 255.068C366.269 248.268 360.402 242.668 360.002 242.668C359.602 242.668 352.535 249.468 344.268 257.735ZM199.868 370.269C175.201 395.069 154.001 416.802 152.801 418.669C150.134 422.802 150.001 434.802 152.534 439.736C155.467 445.069 185.468 474.269 189.734 475.869C194.934 477.869 202.001 477.736 207.068 475.469C209.468 474.402 231.601 453.336 256.668 428.136L302.002 382.669L273.335 354.002L244.668 325.335L199.868 370.269Z"/>
</svg>
