<svg viewBox="0 0 17 19" xmlns="http://www.w3.org/2000/svg">
<path d="M3.49222 0.191525C3.42053 0.326539 3.37957 1.84285 3.37957 4.65737V8.92589H1.81268C0.727119 8.92589 0.204822 8.96743 0.122893 9.05051C0.0409645 9.1336 0 9.59057 0 10.4007C0 11.6262 0 11.6365 0.266269 11.73C0.409645 11.7923 1.16749 11.8339 1.95605 11.8339H3.37957V13.3917H1.81268C0.727119 13.3917 0.204822 13.4333 0.122893 13.5164C-0.0409645 13.6825 -0.0409645 15.6974 0.122893 15.8635C0.204822 15.9466 0.727119 15.9882 1.81268 15.9882H3.37957V17.2967C3.37957 18.0134 3.43077 18.6884 3.48198 18.8027C3.58439 18.9792 3.70728 19 4.89525 19C5.77599 19 6.24708 18.9585 6.32901 18.8754C6.41094 18.7923 6.4519 18.3042 6.4519 17.3694V15.9882H9.87243C12.8526 15.9882 13.3237 15.9674 13.4568 15.822C13.6616 15.6143 13.6924 13.7137 13.4978 13.5164C13.4056 13.4229 12.4737 13.3917 9.9134 13.3917H6.4519V11.865L9.29893 11.8027C11.4803 11.7612 12.2791 11.7092 12.7502 11.5846C14.8803 10.9823 16.4165 9.38286 16.8466 7.3161C17.5021 4.15886 16.0171 1.36511 13.1496 0.336924L12.3405 0.0461252L7.96759 0.0149682C3.6868 -0.0161889 3.59463 -0.0161889 3.49222 0.191525ZM12.0231 3.1099C12.658 3.35916 13.2827 3.91999 13.5695 4.51197C13.8665 5.12473 13.8562 6.73451 13.549 7.3161C13.252 7.87693 12.7502 8.34429 12.1357 8.63509C11.6544 8.86357 11.4803 8.87396 9.0429 8.90511L6.4519 8.94666V2.90219H8.96098C11.2345 2.90219 11.511 2.92296 12.0231 3.1099Z"/>
</svg>
