<svg xmlns="http://www.w3.org/2000/svg" xmlns:xlink="http://www.w3.org/1999/xlink"><symbol viewBox="0 0 256 512" id="icon-chevron" xmlns="http://www.w3.org/2000/svg"><path d="M207.999 256 0 464v48l256-256L0 0v48l207.999 208Z"/></symbol><symbol viewBox="0 0 100 100" id="icon-cross" xmlns="http://www.w3.org/2000/svg"><path fill-rule="evenodd" clip-rule="evenodd" d="M9.343 9.343a8 8 0 0 1 11.314 0l70 70a8 8 0 0 1-11.314 11.314l-70-70a8 8 0 0 1 0-11.314Z"/><path fill-rule="evenodd" clip-rule="evenodd" d="M90.657 9.343a8 8 0 0 1 0 11.314l-70 70A8 8 0 1 1 9.343 79.343l70-70a8 8 0 0 1 11.314 0Z"/></symbol><symbol viewBox="0 0 20 20" id="icon-external-link" xmlns="http://www.w3.org/2000/svg"><path d="M12 1a1 1 0 0 1 1-1h6a1 1 0 0 1 1 1v6a1 1 0 1 1-2 0V3.414l-9.293 9.293a1 1 0 0 1-1.414-1.414L16.586 2H13a1 1 0 0 1-1-1ZM3 5c-.548 0-1 .452-1 1v11a1 1 0 0 0 1 1h11a1 1 0 0 0 1-1v-5a1 1 0 1 1 2 0v5a3 3 0 0 1-3 3H3a3 3 0 0 1-3-3V6c0-1.652 1.348-3 3-3h5a1 1 0 0 1 0 2H3Z"/></symbol><symbol viewBox="0 0 24 24" id="icon-github" xmlns="http://www.w3.org/2000/svg"><path d="M12 0C5.374 0 0 5.373 0 12c0 5.302 3.438 9.8 8.207 11.387.599.111.793-.261.793-.577v-2.234c-3.338.726-4.033-1.416-4.033-1.416-.546-1.387-1.333-1.756-1.333-1.756-1.089-.745.083-.729.083-.729 1.205.084 1.839 1.237 1.839 1.237 1.07 1.834 2.807 1.304 3.492.997.107-.775.418-1.305.762-1.604-2.665-.305-5.467-1.334-5.467-5.931 0-1.311.469-2.381 1.236-3.221-.124-.303-.535-1.524.117-3.176 0 0 1.008-.322 3.301 1.23A11.509 11.509 0 0 1 12 5.803c1.02.005 2.047.138 3.006.404 2.291-1.552 3.297-1.23 3.297-1.23.653 1.653.242 2.874.118 3.176.77.84 1.235 1.911 1.235 3.221 0 4.609-2.807 5.624-5.479 5.921.43.372.823 1.102.823 2.222v3.293c0 .319.192.694.801.576C20.566 21.797 24 17.3 24 12c0-6.627-5.373-12-12-12z"/></symbol><symbol viewBox="0 0 39 21" id="icon-logo" xmlns="http://www.w3.org/2000/svg"><path d="M0 6V4.5L4.5 0H17v6H0Z"/><path fill-rule="evenodd" clip-rule="evenodd" d="M0 8h11c5 0 8 2.5 8 6s-2 7-8 7H0V8Zm6.5 5v3H10c1 0 1.5-.5 1.5-1.5S11 13 10 13H6.5ZM26.5 6H20V0h11c6 0 7.5 3 7.5 6 0 1.5-.5 3-2 4 1 .5 2.5 1.5 2.5 4.5 0 3.5-2.5 6.5-8.5 6.5H20V8h10c1 0 1.5-.5 1.5-1.5S31 5 30 5h-3.5v1ZM30 16h-3.5v-3H30c1 0 1.5.5 1.5 1.5S31 16 30 16Z"/></symbol><symbol viewBox="0 0 642 642" id="icon-maintenance" xmlns="http://www.w3.org/2000/svg"><path d="M297.335.8c-63.2 5.867-120.801 27.734-170.401 64.8-17.2 12.934-49.2 45.067-62.134 62.401-33.466 44.933-54.4 96.667-62.4 153.334-2.533 18.667-2.133 64.934.667 84 2.8 18 6.266 33.467 11.2 49.867 4.4 14.667 6.4 16 15.867 10.934 14.4-7.467 35.733-20.401 37.066-22.401.934-1.466.267-6.266-2.266-16.533-11.734-47.334-11.334-90.4 1.2-136.534C80.8 196.534 115.067 145.868 160 111.467c90.267-68.933 212.401-73.333 306.935-11.066l14.4 9.466-4.667 8.267c-2.533 4.533-4.667 9.867-4.667 11.733 0 6.534 2.267 6.534 46.934.134 42.534-6.134 45.067-6.8 45.067-12.267 0-.933-6.934-19.2-15.467-40.533-16.4-40.8-17.733-43.067-23.867-39.334-1.466.933-5.2 6.133-8.266 11.6-3.067 5.467-6.267 10-6.934 10.267-.666.267-5.6-2.534-11.066-6.134-38.401-25.866-84.534-43.333-131.734-50.266-13.734-2-57.467-3.6-69.334-2.534Z"/><path d="M204.668 156.801c-14.934 2.133-14.4 3.467 12.133 30l22.134 22.133-4.267 15.867c-2.267 8.667-4.933 16.534-5.733 17.334-.934.8-8.8 3.466-17.467 5.733l-16 4.267-22.134-22.134c-22.533-22.533-26.8-25.333-28.533-19.067-.4 1.734-.8 8.401-.8 15.067.133 33.734 24.4 61.334 58.4 66.267 9.467 1.334 12.667 1.334 21.334-.533 5.6-1.2 11.2-2.533 12.266-2.933 1.334-.534 17.867 15.066 53.601 50.8l51.733 51.733-2.133 6.667c-3.467 10.533-3.2 30 .666 41.067 9.734 28.533 34.267 46.4 64.134 46.533 24 .267 23.867-.933-3.867-28.8l-22.666-22.8 4.266-16.267c2.4-9.066 4.934-16.933 5.6-17.466.8-.667 8.534-3.2 17.2-5.467l16.001-4.267 22.133 22.134c22 21.867 26.8 25.333 28.533 19.6 1.867-6.533 2.267-15.6.8-24.4-6.133-40-45.6-66.134-84.267-56.001l-8.933 2.267-52-52-51.867-52.134 2-5.333c1.067-2.933 2.267-9.6 2.667-14.667 2.933-37.333-25.067-69.867-62.934-73.067-4.4-.266-9.734-.4-12-.133Zm123.2 11.467c-11.466 4-15.866 7.066-15.866 10.8 0 4.4 1.066 5.333 12.666 10.8 20.267 9.466 31.734 18.4 60.667 47.067l27.467 26.933 16.534-16.533 16.666-16.667-23.333-23.334c-12.8-12.933-26.534-25.6-30.4-28.133-18.8-12.533-46.267-17.2-64.401-10.933Z"/><path d="M597.336 225.068c-11.333 6.533-21.067 12.8-21.867 13.867-.933 1.466-.266 6.4 2.267 16.533 2 8 4.534 20.8 5.867 28.533 2.933 19.201 2.933 55.867-.133 75.334-9.201 58.8-35.067 109.734-76.268 150.268-22.933 22.4-43.466 36.933-71.333 50.266a263.678 263.678 0 0 1-260.135-17.6l-14.4-9.466 4.667-8.267c5.333-9.333 5.867-14.4 2.133-16.533-2-.934-13.467.266-44.4 4.8-42.267 6.133-45.067 6.933-45.067 12.133 0 .933 6.933 19.2 15.467 40.4 10.533 26.4 16.267 39.2 18.133 40.134 4 2.133 8.134-1.467 14.4-12.8 3.067-5.467 6.134-10 6.8-10 .667 0 4.134 2.133 7.734 4.666 36.133 25.334 87.6 45.067 136 52.267 21.467 3.2 67.067 3.067 88.134 0 104.267-15.867 189.468-75.333 239.601-167.601 12.4-22.533 24-54.667 30.134-82.667 5.466-24.8 6.933-38.8 6.8-68.667 0-30-1.867-46.667-8-72.667-6.134-26.266-9.734-34.667-14.534-34.667-.933 0-10.8 5.334-22 11.734Z"/><path d="m444.269 263.068-28.267 28.267 12.667 12.667 12.667 12.666 28.933-29.067 29.067-28.933-12-12c-6.534-6.533-12.534-12-13.334-12-.8 0-14.133 12.8-29.733 28.4Zm-100.001-5.333c-8.133 8.266-14.933 15.6-14.933 16.266 0 .8 5.467 6.8 12 13.334l12 12 16-16 16-16-12.266-12.267c-6.8-6.8-12.667-12.4-13.067-12.4-.4 0-7.467 6.8-15.734 15.067Zm-144.4 112.534c-24.667 24.8-45.867 46.533-47.067 48.4-2.667 4.133-2.8 16.133-.267 21.067 2.933 5.333 32.934 34.533 37.2 36.133 5.2 2 12.267 1.867 17.334-.4 2.4-1.067 24.533-22.133 49.6-47.333l45.334-45.467-28.667-28.667-28.667-28.667-44.8 44.934Z"/></symbol><symbol viewBox="0 0 30 32" id="icon-search" xmlns="http://www.w3.org/2000/svg"><path class="gpath1" d="M20.571 14.857q0-3.304-2.348-5.652t-5.652-2.348-5.652 2.348-2.348 5.652 2.348 5.652 5.652 2.348 5.652-2.348 2.348-5.652zm9.143 14.857q0 .929-.679 1.607T27.428 32q-.964 0-1.607-.679l-6.125-6.107q-3.196 2.214-7.125 2.214-2.554 0-4.884-.991t-4.018-2.679T.99 19.74t-.991-4.884.991-4.884 2.679-4.018 4.018-2.679 4.884-.991 4.884.991 4.018 2.679 2.679 4.018.991 4.884q0 3.929-2.214 7.125l6.125 6.125q.661.661.661 1.607z"/></symbol><symbol viewBox="0 0 32 28" id="icon-telegram" xmlns="http://www.w3.org/2000/svg"><path d="M23.32 9.35c.981-.982 1.956-3.272-2.134-.491A703.894 703.894 0 0 1 9.65 16.632a4.799 4.799 0 0 1-3.763.081C3.432 15.977.568 14.996.568 14.996s-1.956-1.229 1.392-2.537c0 0 14.154-5.809 19.063-7.855 1.88-.818 8.262-3.435 8.262-3.435s2.946-1.147 2.7 1.636c-.081 1.145-.736 5.156-1.39 9.49-.983 6.136-2.046 12.846-2.046 12.846s-.164 1.88-1.554 2.208a6.733 6.733 0 0 1-4.09-1.472c-.327-.245-6.135-3.928-8.263-5.727a1.551 1.551 0 0 1 .082-2.619A301.152 301.152 0 0 0 23.32 9.35Z"/></symbol><symbol viewBox="0 0 23 24" id="icon-time" xmlns="http://www.w3.org/2000/svg"><path d="M9.35.71a11.4 11.4 0 1 0 9.95 19.43c.18-.2.19-.22.17-.4a.53.53 0 0 0-.11-.25 23.4 23.4 0 0 0-1.94-1.31c-.19-.04-.3 0-.73.35a8.41 8.41 0 0 1-4.1 1.78l-.43.06-.01-.58c-.02-.64-.07-.78-.3-.98a.7.7 0 0 0-.9 0c-.23.2-.28.34-.3.98l-.01.57-.41-.05a8.48 8.48 0 0 1-7.24-7.42l-.03-.23.64-.01c.58-.02.64-.02.78-.12.35-.25.4-.75.1-1.08-.2-.22-.35-.26-1-.26h-.52l.03-.23a8.55 8.55 0 0 1 6.79-7.33c.23-.06.34-.1.4-.2.1-.11.11-.14.11-1.3V.93l-.12-.12c-.16-.17-.3-.2-.82-.1ZM12.83.66a.5.5 0 0 0-.2.15l-.12.14v1.18c0 1.48-.05 1.37.77 1.55.5.12.6.13.72.08a.5.5 0 0 0 .2-.16c.09-.14.84-1.84.89-2.01.05-.16-.05-.4-.19-.48a9.6 9.6 0 0 0-2.07-.45ZM17.32 2.4a.44.44 0 0 0-.23.2c-.19.3-.9 1.97-.9 2.11 0 .2.06.28.4.54.16.13.43.36.59.52.34.31.46.37.65.32.2-.06 1.86-1.4 1.92-1.54.08-.23 0-.38-.4-.77a8.47 8.47 0 0 0-1.8-1.4.54.54 0 0 0-.23.03ZM20.94 6.52a35 35 0 0 0-1.81 1.44c-.09.12-.07.38.04.63.16.38.38 1.05.49 1.5.08.37.11.45.23.55.07.06.18.1.26.1.32 0 2.12-.18 2.23-.22.27-.1.3-.27.16-.95-.22-1.1-.89-2.82-1.16-3.01a.56.56 0 0 0-.44-.04Z"/><path d="M8.16 6.94c-.22.07-.6.46-.66.68-.07.25-.06.57.02.76.03.09.54.83 1.13 1.66l1.06 1.5v.34c0 .57.26 1.05.7 1.36.3.2.53.27.93.27.3 0 .4-.02.61-.11.14-.07.33-.18.4-.25l.16-.14h1.26c1.17 0 1.29 0 1.51-.09.83-.31.94-1.47.17-1.93a1.44 1.44 0 0 0-.44-.17c-.11-.01-.72-.03-1.36-.03H12.5l-.16-.14a1.53 1.53 0 0 0-.66-.32c-.13-.03-.27-.21-1.2-1.53a32.79 32.79 0 0 0-1.22-1.63 1.15 1.15 0 0 0-1.1-.23ZM21.01 12.88c-.49.05-.94.11-1.01.14-.16.06-.22.2-.32.64-.15.7-.4 1.4-.77 2.18-.14.3-.14.46 0 .62.05.06 1.63 1.16 1.8 1.25.15.08.35.06.5-.06a10.2 10.2 0 0 0 1.5-4.53.6.6 0 0 0-.15-.22c-.15-.13-.28-.14-1.55-.02Z"/></symbol><symbol viewBox="0 0 32 33" id="icon-whatsapp" xmlns="http://www.w3.org/2000/svg"><path d="M20.536 17.736c.174 0 .846.31 2.016.933 1.17.622 1.793.996 1.867 1.12.025.05.038.15.038.299 0 .448-.112.958-.336 1.53-.224.573-.722 1.046-1.494 1.42-.772.373-1.481.56-2.128.56-.797 0-2.116-.436-3.958-1.307a11.613 11.613 0 0 1-3.547-2.464c-.996-1.02-2.017-2.303-3.062-3.846-1.02-1.494-1.518-2.838-1.494-4.033v-.186c.05-1.245.56-2.34 1.531-3.286.349-.299.71-.448 1.083-.448.1 0 .224.012.373.037.15.025.287.037.411.037.274 0 .46.038.56.112.1.075.2.274.299.598.124.274.361.884.71 1.83.348.945.522 1.456.522 1.53 0 .299-.236.71-.71 1.232-.472.523-.721.847-.746.971 0 .075.037.175.112.299.473 1.02 1.182 1.966 2.128 2.838.772.746 1.817 1.456 3.137 2.128.174.1.348.15.522.15.175 0 .536-.337 1.083-1.009.548-.672.909-1.02 1.083-1.045ZM16.28 28.788c1.768 0 3.46-.349 5.079-1.046 1.617-.697 3.011-1.618 4.181-2.763 1.17-1.145 2.104-2.539 2.8-4.182a12.88 12.88 0 0 0 1.046-5.078 12.88 12.88 0 0 0-1.045-5.078C27.643 9 26.71 7.605 25.54 6.46c-1.17-1.146-2.564-2.079-4.182-2.8a11.908 11.908 0 0 0-5.079-1.046 13.328 13.328 0 0 0-5.04 1.045 12.995 12.995 0 0 0-4.182 2.8 12.995 12.995 0 0 0-2.8 4.182A13.418 13.418 0 0 0 3.21 15.72c0 2.813.834 5.365 2.502 7.655L4.07 28.228l5.04-1.606c2.191 1.444 4.58 2.166 7.17 2.166ZM16.28 0c2.141 0 4.182.423 6.124 1.27 1.942.846 3.61 1.954 5.003 3.323 1.394 1.369 2.514 3.049 3.36 5.04.847 1.992 1.258 4.02 1.233 6.086-.025 2.066-.436 4.095-1.232 6.087-.797 1.991-1.917 3.659-3.36 5.003-1.444 1.344-3.112 2.464-5.004 3.36-1.892.896-3.933 1.32-6.123 1.27-2.689 0-5.215-.66-7.58-1.98L0 32.26l2.838-8.438c-1.494-2.464-2.24-5.165-2.24-8.103 0-2.14.41-4.169 1.232-6.086a16.25 16.25 0 0 1 3.36-5.04 14.553 14.553 0 0 1 5.003-3.324A17.832 17.832 0 0 1 16.28 0Z"/></symbol><symbol viewBox="0 0 29 29" id="icon-x" xmlns="http://www.w3.org/2000/svg"><path d="M24.4 1.065a1 1 0 0 1 1.414 0l2.121 2.121a1 1 0 0 1 0 1.414L4.601 27.935a1 1 0 0 1-1.415 0l-2.121-2.121a1 1 0 0 1 0-1.415L24.399 1.065Z"/><path d="M27.935 24.4a1 1 0 0 1 0 1.414l-2.121 2.12a1 1 0 0 1-1.415 0L1.066 4.6a1 1 0 0 1 0-1.414l2.121-2.121a1 1 0 0 1 1.415 0l23.334 23.334Z"/></symbol></svg>