<svg xmlns="http://www.w3.org/2000/svg"><symbol id="icon-cross" viewBox="0 0 100 100">
<path fill-rule="evenodd" clip-rule="evenodd" d="M9.34315 9.34315C12.4673 6.21895 17.5327 6.21895 20.6569 9.34315L90.6569 79.3431C93.7811 82.4673 93.7811 87.5327 90.6569 90.6569C87.5327 93.7811 82.4673 93.7811 79.3431 90.6569L9.34315 20.6569C6.21895 17.5327 6.21895 12.4673 9.34315 9.34315Z"/>
<path fill-rule="evenodd" clip-rule="evenodd" d="M90.6569 9.34315C93.7811 12.4673 93.7811 17.5327 90.6569 20.6569L20.6569 90.6569C17.5327 93.7811 12.4673 93.7811 9.34315 90.6569C6.21895 87.5327 6.21895 82.4673 9.34315 79.3431L79.3431 9.34315C82.4673 6.21895 87.5327 6.21895 90.6569 9.34315Z"/>
</symbol><symbol id="icon-search" viewBox="0 0 30 32">
<path class="path1" d="M20.571 14.857q0-3.304-2.348-5.652t-5.652-2.348-5.652 2.348-2.348 5.652 2.348 5.652 5.652 2.348 5.652-2.348 2.348-5.652zM29.714 29.714q0 0.929-0.679 1.607t-1.607 0.679q-0.964 0-1.607-0.679l-6.125-6.107q-3.196 2.214-7.125 2.214-2.554 0-4.884-0.991t-4.018-2.679-2.679-4.018-0.991-4.884 0.991-4.884 2.679-4.018 4.018-2.679 4.884-0.991 4.884 0.991 4.018 2.679 2.679 4.018 0.991 4.884q0 3.929-2.214 7.125l6.125 6.125q0.661 0.661 0.661 1.607z"/>
</symbol></svg>