<svg width="995" height="171" viewBox="0 0 995 171" fill="none" xmlns="http://www.w3.org/2000/svg">
<path d="M206.969 171.675H146.334L124.126 67.1229H123.128L100.92 171.675H40.2846L0.110687 0H57.502L77.2147 97.3157H78.2128L97.6759 0H152.073L172.784 97.3157H173.782L192.247 0H247.143L206.969 171.675ZM266.856 171.675V0H415.324V41.172H322.001V64.8771H401.85V104.302H322.001V130.503H417.071V171.675H266.856ZM561.248 0C569.932 0 577.883 1.77996 585.103 5.33989C592.356 8.93308 598.095 13.9735 602.32 20.4613C606.546 26.949 608.658 34.1853 608.658 42.1701C608.658 63.2968 599.093 76.6049 579.963 82.0945V83.0927C601.788 88.0832 612.701 102.389 612.701 126.011C612.701 134.994 610.488 142.929 606.063 149.816C601.638 156.737 595.616 162.11 587.997 165.936C580.345 169.762 571.944 171.675 562.795 171.675H447.014V0H561.248ZM502.11 37.6786V66.8734H540.038C543.731 66.8734 546.775 65.5758 549.171 62.9807C551.6 60.4189 552.814 57.225 552.814 53.3989V50.9036C552.814 47.2439 551.566 44.1165 549.071 41.5214C546.576 38.9596 543.565 37.6786 540.038 37.6786H502.11ZM502.11 102.306V131.751H544.081C547.707 131.751 550.735 130.453 553.163 127.858C555.592 125.296 556.806 122.102 556.806 118.276V115.781C556.806 111.955 555.592 108.744 553.163 106.149C550.735 103.587 547.707 102.306 544.081 102.306H502.11ZM793.059 17.7165L713.46 130.503H795.055V171.675H628.62V153.958L708.22 41.172H634.609V0H793.059V17.7165ZM994.677 171.675H936.288L929.051 147.471H868.915L861.679 171.675H805.286L867.917 0H932.046L994.677 171.675ZM898.609 47.9093L880.394 109.044H917.573L899.607 47.9093H898.609Z" fill="#1E293B"/>
</svg>
