<svg xmlns="http://www.w3.org/2000/svg" width="1208" height="838" fill="none" viewBox="0 0 1208 838"><path fill="#000" d="M391.67 4.87c-80.67 20.93-176.94 87.73-222 154l-5.2 7.86-11.74.94c-16.93 1.2-27.46 4.66-37.86 12.66C99.4 191.93 87.53 209 80.2 230.2c-3.33 9.33-3.87 12.8-3.87 25.47 0 17.06 2.27 27.86 7.2 35.33 5.34 8.13 6 6.53-12.4 35.73-8.4 13.47-15.46 29.2-18.4 41.07-1.86 7.47-2 9.87-.53 15.07 2.13 8 6.67 13.73 13.07 16.53 4.26 1.87 40.13 8.13 82.4 14.53 12.53 1.87 44.66.54 68.66-2.93 33.47-4.8 54-10.53 76.67-21.33 15.47-7.34 25.07-14.27 40.4-28.4 6-5.74 11.47-10.27 12.27-10.27 5.6 0-5.2-7.73-12.67-8.93-5.47-.94-5.87-2.14-1.73-4.94 6.53-4.66 15.33-1.06 22.13 8.8 5.2 7.6 12.67 22.54 11.73 23.47-.4.4-.8 0-.8-.8s-3.33-5.07-7.6-9.6l-7.46-8.13-1.74 4c-.93 2.26-4.53 8.13-8.13 13.06-27.2 38.14-56.4 51.74-125.6 58.4-32.53 3.2-66.13 2.67-93.07-1.33-12.26-1.87-25.06-4-28.4-4.67-7.6-1.6-17.33-1.73-17.33-.26 0 2.4 8 12 17.47 20.93 29.2 27.6 70.66 46.27 119.6 53.6 20.8 3.07 68.26 3.07 87.6 0 40.4-6.53 66.13-16.4 98.66-37.87L413 447l-13.47 13.07c-12.8 12.26-14 13.86-23.06 31.46-11.87 23.2-22.4 39.07-32.8 49.74l-8.14 8.4h-12c-24.93 0-47.06 8.93-66.13 26.53L245.93 587h-115.2C23.8 587 15.4 587.13 11 589.4c-10.53 5.2-14.27 19.73-7.2 28.13 1.87 2.4 4.8 4.94 6.4 5.87 2.13 1.2 28.27 1.73 107.33 2.27l104.67.66 3.47 6c8.26 14.14 24.53 15.74 36.93 3.74 2.4-2.27 7.2-9.2 10.53-15.34 3.47-6 8.27-13.46 10.8-16.4 5.47-6.4 23.07-20.26 23.07-18.13 0 1.33-14.13 17.87-25.47 29.6-13.46 14.13-16 19.6-13.33 28.53 2.8 9.34 13.07 13.2 23.2 8.8 2.4-.93 12-7.6 21.6-14.66l17.33-12.8h45.07c34.8 0 45.07.4 45.47 1.6.26.93 1.33 4.66 2.26 8.26 4.67 18.14 18.67 19.2 23.2 1.87C449.67 624.47 457 615 471 605.27c3.33-2.27 5.33-3.2 4.53-2.14-.8.94-5.73 7.2-10.93 13.6-11.07 13.87-14.13 19.74-14.13 26.67 0 4.27.8 6 4.8 9.6 6.26 5.73 15.06 7.07 28.93 4.13 12-2.53 20.13-7.2 36.27-21.06l12.13-10.4h101.07l.8 3.6c1.6 7.73 2.26 9.2 5.33 13.2 8.13 10.93 24.53 11.33 32.4.93l2.67-3.73.13 3.73c.13 13.07 13.73 18.93 31.47 13.6 6.93-2.13 12.8-6.4 29.86-21.73l10.67-9.6h55.73l5.74-9.6c3.06-5.34 8.26-13.6 11.46-18.4l5.74-8.67-6.27-.93c-3.6-.4-11.07-.94-16.8-.94l-10.53-.13 2.66-4.4c1.34-2.27 6.94-11.47 12.27-20.27 16.4-26.8 27.2-53.6 34-84.4 2.4-10.93 4.27-16.26 6.13-17.86 3.87-3.34 14.54-7.07 32.54-11.2 14-3.2 18.8-3.74 38.66-3.74 25.2-.13 37.74 1.74 55.34 8.67 14.13 5.47 25.33 12.4 37.2 23.07 28.66 26.26 43.46 52.13 53.46 94.13 4 17.07 5.6 15.47-16.93 16.53-10.8.4-19.73 1.07-19.87 1.2-.26.27 2.4 8.54 5.87 18.54l6.27 18.13 14.93.53c8.13.14 15.33.94 15.87 1.47.53.53.4 7.6-.54 15.6-3.06 30.13-16 58.13-35.6 78-18.4 18.4-36.13 27.87-60.93 32.13-14.27 2.54-33.47 1.87-44.67-1.46-8.8-2.67-25.33-13.6-32.13-21.34-6.93-7.86-14.4-22.13-17.07-32.8-4.93-19.33 1.6-46.4 14.94-61.2 9.2-10.13 27.2-18.66 39.73-18.66 23.2 0 43.47 18.4 43.47 39.33-.14 18.53-13.07 30.67-28 26.13-7.47-2.26-11.2-8.13-11.6-18-.14-4.26-.94-8.53-1.74-9.33-.66-.67-4.53-1.33-8.4-1.33-18.66 0-28.13 19.2-20.4 41.6 5.2 15.2 22.14 27.73 42 31.2 20 3.46 44.27-5.34 60.67-22 10.4-10.4 16.93-21.34 20.13-33.6 2.67-10.4 2.67-37.47 0-47.74-5.86-22.4-22.8-43.73-47.73-59.73-28.13-18.27-70.67-19.2-104.53-2.4-14 6.93-21.6 12.4-33.47 24.13-30.27 30-45.07 71.07-42.53 117.74 1.86 32 14.93 59.86 40.26 85.46 30.67 31.07 75.47 48.8 123.34 48.8 20.93 0 38.66-2.93 59.33-9.73 34.27-11.33 56.93-25.33 82-50.4 36.8-36.93 57.33-79.33 65.2-134.8l2.27-16.67 12.26-.66c11.6-.67 12.4-.94 16.54-5.07 4.13-4 4.4-4.93 4.4-13.6 0-8.27-.4-9.47-3.87-13.2-4.53-4.8-10.67-6.8-20.27-6.8-7.73 0-8.53-1.07-8.53-11.33 0-2.94-.93-13.2-2-22.67-10.93-94-46.67-198.4-96.93-282.67-35.34-59.06-79.2-111.33-124.14-147.46-29.73-24-73.6-49.07-108.26-61.87-16.67-6.27-43.74-13.07-63.47-16.27-21.73-3.33-82-3.33-103.87 0-46.93 7.34-94.66 23.07-142.66 47.07-22.14 11.07-62.8 34.8-66.8 38.93-1.74 1.74-3.07 9.87-5.74 34.54-3.86 35.33-6.4 47.46-12.66 60.53l-4.14 8.53.67-16.66c.4-9.2 1.73-27.47 2.93-40.67 2.94-32.13 3.34-138.67.54-150-2.54-10.27-6-16.67-11.07-20.4-10.4-7.6-21.2-8-45.73-1.73ZM303 159.8c21.2 4.93 42.93 21.2 51.2 38.13 4.53 9.2 6.93 22.54 5.47 29.74L358.6 233l-2.27-7.33c-8.26-27.07-24.4-42.4-51.46-49.34-26.54-6.8-53.6-.8-71.6 15.74l-6.67 6.26 5.33-8.13c10.54-15.47 24.67-25.73 42-30.4 9.34-2.53 18.4-2.53 29.07 0Zm1.2 39.2c15.6 7.07 26.13 19.33 31.73 36.93 12.94 40.94-18.8 83.07-62.66 83.07-22.8 0-44.54-16.67-51.6-39.6-6.54-21.07-.14-48.8 14.8-64.93 6-6.67 17.6-13.2 28-16 11.06-3.07 32.53-2.67 39.73.53Zm-166.67.53c7.6 4 7.74 4.67.94 21.74-3.47 8.66-7.07 16.93-8.27 18.4-1.87 2.53-2.13 2.53-3.33.26-2.94-4.93-10.27-1.33-14.67 7.2-2 4-2.53 7.47-2.4 13.87.27 8.27-2.27 15.33-5.33 15.33-2 0-7.2-16.26-7.87-24.8-.67-9.33 2.93-23.86 8.4-33.33 5.73-9.87 19.2-20.27 26.4-20.53 1.33 0 4 .8 6.13 1.86Zm753.74 110c9.86 2.54 28.66 9.87 30.8 12 .66.67-4.14-.4-10.67-2.13-17.47-4.93-39.47-5.6-57.73-1.73-16.14 3.2-24.94 6.93-36.54 15.2-22 15.73-37.33 39.46-48 74.4-6.53 21.46-16.53 65.46-21.33 93.73-5.07 29.47-7.6 38.67-11.2 40.53-1.33.54-5.6 1.47-9.6 2-12.27 1.47-32 7.34-43.6 12.94-10.93 5.2-23.33 15.73-31.2 26.26-2.67 3.6-4.13 4.4-8.53 4.67-14.8.53-72.67-.53-72.67-1.47 0-.53 4.4-6.26 9.73-12.53 12.27-14.67 34.67-45.47 45.34-62.13 16-25.6 26.4-52.54 24.4-63.34-2-10.93-20-31.33-40.14-45.46-14-9.87-42.93-32.8-52-41.34l-8-7.46 10 6.53c5.47 3.47 18.67 11.07 29.34 16.8C643.8 405.93 659 423.4 659 456.6c0 8.53.4 10.67 2.13 11.33 2.67.94 56.27-1.73 71.07-3.6 6.53-.93 10.93-2.13 12.27-3.73 1.6-1.47 3.46-9.07 5.86-23.6 5.47-33.33 9.2-45.73 20.54-68 7.33-14.4 19.2-30.53 27.86-37.73 9.6-7.87 21.6-15.6 28.27-18.14 17.47-6.53 46.4-8.13 64.27-3.6Zm-757.34 42.4c3.2 2.94 3.07 5.2-.93 9.07-4 4.13-10.67 4.53-12.67.8-2-3.87-1.73-5.2 2-8.8 3.74-3.87 8.14-4.27 11.6-1.07ZM529.67 465c12.13 2.67 23.06 5.07 24.4 5.47 2 .66-.4 6.26-17.74 40.26-11.06 21.74-20.93 40.4-22 41.47-.93.93-6.8 2.27-13.46 2.93-15.34 1.6-24.27 3.2-36.54 6.8-9.46 2.67-10.66 3.6-21.2 14.14-12.8 12.8-8.53 11.73-43.06 11.2-11.6-.14-21.07-.8-21.07-1.34 0-.66 10-10.13 22.4-21.2 24.93-22.53 40.93-38.66 62-62.66 12-13.87 25.87-31.34 29.47-37.34.53-1.06-2.54-3.46-9.87-7.06-5.87-2.94-10.67-5.6-10.67-5.87 0-.27 8 1.6 17.74 4 9.6 2.53 27.46 6.67 39.6 9.2ZM702.6 595.93c-1.07 2-5.2 7.87-9.07 13.07a612.71 612.71 0 0 0-12.13 16.53c-2.8 4-5.07 6.8-5.07 6.27 0-.4 2.54-6 5.6-12.4 3.74-7.6 8.4-14.53 13.6-20 8.14-8.8 10.4-9.87 7.07-3.47Z"/><path fill="#000" d="M244.87 246.2c-10.27 10.8-11.87 22.4-5.2 37.47 6.66 15.06 17.2 17.6 28.53 6.93 9.07-8.67 13.33-24.67 9.33-35.2-3.2-8.67-12.4-15.07-21.33-15.07-4.93 0-6.4.8-11.33 5.87Z"/></svg>