<svg xmlns="http://www.w3.org/2000/svg" xmlns:xlink="http://www.w3.org/1999/xlink"><symbol viewBox="0 0 256 512" id="icon-chevron" xmlns="http://www.w3.org/2000/svg"><path d="M207.999 256 0 464v48l256-256L0 0v48l207.999 208Z"/></symbol><symbol viewBox="0 0 100 100" id="icon-cross" xmlns="http://www.w3.org/2000/svg"><path fill-rule="evenodd" clip-rule="evenodd" d="M9.343 9.343a8 8 0 0 1 11.314 0l70 70a8 8 0 0 1-11.314 11.314l-70-70a8 8 0 0 1 0-11.314Z"/><path fill-rule="evenodd" clip-rule="evenodd" d="M90.657 9.343a8 8 0 0 1 0 11.314l-70 70A8 8 0 1 1 9.343 79.343l70-70a8 8 0 0 1 11.314 0Z"/></symbol><symbol viewBox="0 0 20 20" id="icon-external-link" xmlns="http://www.w3.org/2000/svg"><path d="M12 1a1 1 0 0 1 1-1h6a1 1 0 0 1 1 1v6a1 1 0 1 1-2 0V3.414l-9.293 9.293a1 1 0 0 1-1.414-1.414L16.586 2H13a1 1 0 0 1-1-1ZM3 5c-.548 0-1 .452-1 1v11a1 1 0 0 0 1 1h11a1 1 0 0 0 1-1v-5a1 1 0 1 1 2 0v5a3 3 0 0 1-3 3H3a3 3 0 0 1-3-3V6c0-1.652 1.348-3 3-3h5a1 1 0 0 1 0 2H3Z"/></symbol><symbol viewBox="0 0 24 24" id="icon-github" xmlns="http://www.w3.org/2000/svg"><path d="M12 0C5.374 0 0 5.373 0 12c0 5.302 3.438 9.8 8.207 11.387.599.111.793-.261.793-.577v-2.234c-3.338.726-4.033-1.416-4.033-1.416-.546-1.387-1.333-1.756-1.333-1.756-1.089-.745.083-.729.083-.729 1.205.084 1.839 1.237 1.839 1.237 1.07 1.834 2.807 1.304 3.492.997.107-.775.418-1.305.762-1.604-2.665-.305-5.467-1.334-5.467-5.931 0-1.311.469-2.381 1.236-3.221-.124-.303-.535-1.524.117-3.176 0 0 1.008-.322 3.301 1.23A11.509 11.509 0 0 1 12 5.803c1.02.005 2.047.138 3.006.404 2.291-1.552 3.297-1.23 3.297-1.23.653 1.653.242 2.874.118 3.176.77.84 1.235 1.911 1.235 3.221 0 4.609-2.807 5.624-5.479 5.921.43.372.823 1.102.823 2.222v3.293c0 .319.192.694.801.576C20.566 21.797 24 17.3 24 12c0-6.627-5.373-12-12-12z"/></symbol><symbol viewBox="0 0 60 60" id="icon-lemur" xmlns="http://www.w3.org/2000/svg"><path d="M19.26 18.72a1.45 1.45 0 0 1 1.65.5c.2.26.22.35.22.88 0 .55-.03.63-.23.9-.6.79-1.77.79-2.37 0-.27-.35-.35-1.12-.16-1.5.17-.32.54-.65.89-.78ZM9.2 18.85c.62-.3 1.33-.13 1.75.44.2.26.23.36.23.81 0 .46-.03.56-.23.82a1.4 1.4 0 0 1-2.4-.23c-.32-.68-.04-1.49.65-1.84Z"/><path fill-rule="evenodd" d="M26.41 9.08c.6-.2 1.15.66 1.24 1.91.05.64-.24 2.9-.5 3.91a5.8 5.8 0 0 1-1.4 2.6l-.56.6.34.68c.53 1.07 1.2 3.25 1.2 3.9 0 .1.07.18.18.2.74.16 5.14 1.41 6.26 1.8 3.75 1.23 6.13 2.55 8.44 4.63a20.05 20.05 0 0 1 5.52 9.1c.6 2.36.61 5 .05 7.36-.09.34-.14.63-.13.65.04.03.8-1.19 1.3-2.15.5-.9 1.04-2.06 1.52-3.2l.21-.52.57.2c.57.2 1.59.7 2.08.98.56.34 1.54 1.16 2.1 1.75l.57.6-.37.69a30.53 30.53 0 0 1-5.27 7.11c-2.37 2.3-4.85 3.72-7.4 4.22l-.46.1.32.14c.34.15.63.52.8 1.04.12.34-.02.33 1.22.11.53-.08.57-.1.97-.55.54-.6 2.35-2.05 2.44-1.96.04.04-.04.31-.16.63-.2.48-.71 2.14-.71 2.3 0 .09.64.25.7.18.03-.03.49-.63 1-1.32 1.6-2.14 2.75-3.18 4.4-4 .74-.39.86-.38.57.05a29.1 29.1 0 0 0-1.55 2.86 21.6 21.6 0 0 0-1.11 2.78c.01.04.32-.14.68-.4.92-.68 1.87-1.2 2.66-1.49a9.22 9.22 0 0 1 2.67-.61l.4.02-.7.5c-.39.27-1 .78-1.37 1.12-.68.64-1.65 1.83-1.6 1.98.01.04.43.18.91.3l.46.12H30.25c.35-.34.86-.78 1.33-1.12.01-.02.01-.04-.01-.07-.08-.07-.88.29-1.42.65-.22.15-.47.36-.64.54h-1.8c.22-.36.57-.83.9-1.16a6.6 6.6 0 0 1 2.26-1.46l.6-.26H31c-1.5 0-3.39 1.06-3.92 2.17-.08.18-.14.46-.15.71H11.22c.4-.34 1.01-.8 1.6-1.16.5-.3.5-.41-.02-.3-.65.15-1.58.72-2.43 1.46H0a9.34 9.34 0 0 1 3.3-1.01l.81-.1-.44-.86a13.74 13.74 0 0 0-2.5-3.64c-.36-.37-.58-.65-.5-.65a11.3 11.3 0 0 1 5.98 3.9c.05-.05-.85-3.47-1.1-4.2a12.08 12.08 0 0 0-1.38-2.8c0-.08.65.28 1.15.64a11.1 11.1 0 0 1 2.75 3.35l.4.7.05-.27.6-2.64c1.36-5.96 2.41-11.18 2.41-11.9 0-.1-.18-.56-.4-1.01-.8-1.64-1.4-3.4-1.68-4.9-.15-.84-.21-3.17-.1-4.06l.07-.44-.96-.48c-2.26-1.13-4.28-3.15-5-5-.58-1.47-.32-3.38.8-5.9.21-.47.38-.87.38-.9 0-.02-.2-.33-.47-.67a9.14 9.14 0 0 1-1.73-6.27c.1-.9.25-1.33.57-1.6.32-.27.58-.24 1.71.15 1.09.38 1.48.56 2.12 1 .43.3 1.38 1.24 1.7 1.69l.16.22.77-.36c1.63-.76 3.04-1.03 5.43-1.03 2.17 0 3.28.18 5.26.85l.86.28c.02 0 .29-.21.59-.48a13.43 13.43 0 0 1 4.8-2.53Zm-2.66 48.8c.48-.4.44-.46-.1-.17-.77.41-1.39 1.04-1.39 1.42 0 .14.1.08.54-.36l.95-.88Zm3.6-19.58c-.03-.02-.08.16-.11.4-.38 3.39-.56 4.26-1.29 6.23a36.33 36.33 0 0 1-4.56 8.81 250.66 250.66 0 0 1-2.57 3.8s.24.02.53.02c.6.01 1.2.18 1.62.47l.28.19v-.31c0-.42.14-1.08.3-1.41.19-.36.8-.92 1.16-1.07 1.12-.48 3.44-.7 4.76-.46.17.03.05-.08-.5-.46-1.37-.92-2.62-2.27-2.83-3.06-.1-.39-.06-.52.56-1.57a22.1 22.1 0 0 0 2.1-5.03c.47-1.76.77-4.48.66-5.87a2.18 2.18 0 0 0-.11-.68Zm-10.28 2.12c-.45-.82-.67-1.15-.68-1.03 0 .04.32 1.06.7 2.27l.71 2.2-.24.68c-.3.79-1.38 3.14-2 4.33-.74 1.38-3.5 6.28-4.28 7.6a3.8 3.8 0 0 0-.36.7c.02 0 .26 0 .54-.05.28-.04.94-.08 1.48-.11 1.55-.08 1.45-.04 1.8-.74a53.55 53.55 0 0 0 2.75-6.7 49.78 49.78 0 0 0 1.41-5.45c.08-.6.08-.62-.14-.94a43 43 0 0 1-1.69-2.76Zm19.72-2.84a8.3 8.3 0 0 0-3.25-.14c-1.82.38-3.14 1.37-4.5 3.37-.45.65-1 1.81-1.13 2.35-.58 2.43-.37 4.93.63 7.36 1 2.41 3.13 4.84 4.9 5.58.29.13.55.21.56.19.03-.02-.13-.19-.34-.37a13.17 13.17 0 0 1-4.38-6.35c-.8-2.67-.73-5.16.18-7.08 1.07-2.23 2.63-3.66 4.59-4.2.63-.16 1.9-.23 2.67-.12.53.07 1.6.33 2.1.53.16.06.16.06.02-.11a6.46 6.46 0 0 0-2.05-1Zm-17.52-11.6c-.02-.18-.1-.12-.7.52a5.16 5.16 0 0 1-2.28 1.53c-.66.26-.8.28-1.76.31-.77.02-1.17 0-1.61-.1a6.65 6.65 0 0 1-2.24-1.09c-.79-.62-.74-.6-.6-.24.56 1.35 2.15 2.32 4 2.45 2.14.13 4.17-.97 4.99-2.7.12-.28.22-.58.2-.68Zm-5.08-1.55c-.82 0-1.48.02-1.46.06l.21.55c.17.4.24.5.41.54.17.03.3.17.54.63.23.42.35.56.4.5a4 4 0 0 0 .42-.58c.22-.37.37-.53.54-.58.2-.05.24-.12.33-.5.05-.23.1-.47.1-.53 0-.07-.35-.1-1.49-.1Zm6.61-7.48a3.92 3.92 0 0 0-2.27-.08c-.53.18-1.2.7-1.5 1.16a3.13 3.13 0 0 0-.59 2c0 .83.15 1.32.6 2 .74 1.14 2.52 1.56 3.84.92a3.24 3.24 0 0 0 1.76-2.75c.08-1.47-.62-2.7-1.84-3.25Zm-9.85.25a2.9 2.9 0 0 0-3.4.66c-.57.61-.82 1.18-.86 2-.04.85.08 1.38.46 1.97a3.02 3.02 0 0 0 5.47-1.27c.17-1.49-.47-2.78-1.67-3.36Z" clip-rule="evenodd"/><path d="M52.58 31.82c.34 0 2.52.41 3.12.6.66.19 2.98 1.28 3.12 1.46.2.26-1 4.4-1.8 6.2l-.23.52-.44-.42a10.29 10.29 0 0 0-4.57-2.5c-.38-.09-.7-.2-.7-.24a99.3 99.3 0 0 0 1.1-4.43c.22-.98.3-1.2.4-1.2ZM54.26 22.65c1.53-.23 3.94-.03 5.3.43l.41.14.03.55c.04.88-.35 5.7-.5 6.14-.02.06-.24 0-.68-.2a10.85 10.85 0 0 0-4.7-1.1l-1.4-.04.04-.24c.02-.14.07-1.42.1-2.85l.05-2.6.32-.06c.18-.04.64-.1 1.03-.17ZM39.23 15.83c.2.05.6.13.88.16 1.1.1 1.79.56 2.21 1.47.61 1.32.4 2.88-.54 3.82-.46.46-1.35.9-2.15 1.07-.68.15-1.97.11-2.67-.08a7.32 7.32 0 0 1-4.01-2.83l-.27-.4.49-.06a8.47 8.47 0 0 0 3.64-1.2 6.29 6.29 0 0 0 1.8-1.66l.25-.4.37.1ZM57.5 11.43c.9-.2.82-.25 1.14.74a24.36 24.36 0 0 1 1.15 6.84 2.6 2.6 0 0 1-.76-.1 12.54 12.54 0 0 0-5.56.25c-.5.14-.93.23-.94.22l-.22-1.14a25.17 25.17 0 0 0-.91-3.41c-.09-.22-.14-.43-.11-.48a17.07 17.07 0 0 1 6.22-2.92ZM32.05 5.64c.04 0 .27.25.52.57a13.49 13.49 0 0 0 4.2 3.21c.5.24.83.44.81.5a5.18 5.18 0 0 0-.37 4.1l-.5.21c-2.03.85-4.23 1.13-5.68.72-.42-.12-.46-.16-.58-.45a9.8 9.8 0 0 1-.16-5.62c.23-.9.82-2.14 1.33-2.79.2-.24.39-.45.43-.45ZM50.18 1.95A13.27 13.27 0 0 1 54.55 5c.72.75 1.95 2.35 1.9 2.47a10.62 10.62 0 0 0-2.63.9c-1.2.6-3 1.99-3.67 2.84-.14.19-.29.33-.32.31a7.5 7.5 0 0 1-.54-.63 11.4 11.4 0 0 0-2.7-2.43 2.6 2.6 0 0 1 .18-.86c.68-2.3 1.5-3.8 2.8-5.09l.6-.56ZM41.14.07c1.15-.15 3.22-.05 4 .19.1.03.05.18-.26.8-.79 1.61-1.11 3-1.11 4.87v1.28h-1.03a6.16 6.16 0 0 0-2.76.5c-.13.08-.3.13-.36.13a6.7 6.7 0 0 1-1.04-.92 10.81 10.81 0 0 1-2.71-4.16l-.2-.57.36-.27a12.6 12.6 0 0 1 5.1-1.85Z"/></symbol><symbol viewBox="0 0 39 21" id="icon-logo" xmlns="http://www.w3.org/2000/svg"><path d="M0 6V4.5L4.5 0H17v6H0Z"/><path fill-rule="evenodd" clip-rule="evenodd" d="M0 8h11c5 0 8 2.5 8 6s-2 7-8 7H0V8Zm6.5 5v3H10c1 0 1.5-.5 1.5-1.5S11 13 10 13H6.5ZM26.5 6H20V0h11c6 0 7.5 3 7.5 6 0 1.5-.5 3-2 4 1 .5 2.5 1.5 2.5 4.5 0 3.5-2.5 6.5-8.5 6.5H20V8h10c1 0 1.5-.5 1.5-1.5S31 5 30 5h-3.5v1ZM30 16h-3.5v-3H30c1 0 1.5.5 1.5 1.5S31 16 30 16Z"/></symbol><symbol viewBox="0 0 642 642" id="icon-maintenance" xmlns="http://www.w3.org/2000/svg"><path d="M297.335.8c-63.2 5.867-120.801 27.734-170.401 64.8-17.2 12.934-49.2 45.067-62.134 62.401-33.466 44.933-54.4 96.667-62.4 153.334-2.533 18.667-2.133 64.934.667 84 2.8 18 6.266 33.467 11.2 49.867 4.4 14.667 6.4 16 15.867 10.934 14.4-7.467 35.733-20.401 37.066-22.401.934-1.466.267-6.266-2.266-16.533-11.734-47.334-11.334-90.4 1.2-136.534C80.8 196.534 115.067 145.868 160 111.467c90.267-68.933 212.401-73.333 306.935-11.066l14.4 9.466-4.667 8.267c-2.533 4.533-4.667 9.867-4.667 11.733 0 6.534 2.267 6.534 46.934.134 42.534-6.134 45.067-6.8 45.067-12.267 0-.933-6.934-19.2-15.467-40.533-16.4-40.8-17.733-43.067-23.867-39.334-1.466.933-5.2 6.133-8.266 11.6-3.067 5.467-6.267 10-6.934 10.267-.666.267-5.6-2.534-11.066-6.134-38.401-25.866-84.534-43.333-131.734-50.266-13.734-2-57.467-3.6-69.334-2.534Z"/><path d="M204.668 156.801c-14.934 2.133-14.4 3.467 12.133 30l22.134 22.133-4.267 15.867c-2.267 8.667-4.933 16.534-5.733 17.334-.934.8-8.8 3.466-17.467 5.733l-16 4.267-22.134-22.134c-22.533-22.533-26.8-25.333-28.533-19.067-.4 1.734-.8 8.401-.8 15.067.133 33.734 24.4 61.334 58.4 66.267 9.467 1.334 12.667 1.334 21.334-.533 5.6-1.2 11.2-2.533 12.266-2.933 1.334-.534 17.867 15.066 53.601 50.8l51.733 51.733-2.133 6.667c-3.467 10.533-3.2 30 .666 41.067 9.734 28.533 34.267 46.4 64.134 46.533 24 .267 23.867-.933-3.867-28.8l-22.666-22.8 4.266-16.267c2.4-9.066 4.934-16.933 5.6-17.466.8-.667 8.534-3.2 17.2-5.467l16.001-4.267 22.133 22.134c22 21.867 26.8 25.333 28.533 19.6 1.867-6.533 2.267-15.6.8-24.4-6.133-40-45.6-66.134-84.267-56.001l-8.933 2.267-52-52-51.867-52.134 2-5.333c1.067-2.933 2.267-9.6 2.667-14.667 2.933-37.333-25.067-69.867-62.934-73.067-4.4-.266-9.734-.4-12-.133Zm123.2 11.467c-11.466 4-15.866 7.066-15.866 10.8 0 4.4 1.066 5.333 12.666 10.8 20.267 9.466 31.734 18.4 60.667 47.067l27.467 26.933 16.534-16.533 16.666-16.667-23.333-23.334c-12.8-12.933-26.534-25.6-30.4-28.133-18.8-12.533-46.267-17.2-64.401-10.933Z"/><path d="M597.336 225.068c-11.333 6.533-21.067 12.8-21.867 13.867-.933 1.466-.266 6.4 2.267 16.533 2 8 4.534 20.8 5.867 28.533 2.933 19.201 2.933 55.867-.133 75.334-9.201 58.8-35.067 109.734-76.268 150.268-22.933 22.4-43.466 36.933-71.333 50.266a263.678 263.678 0 0 1-260.135-17.6l-14.4-9.466 4.667-8.267c5.333-9.333 5.867-14.4 2.133-16.533-2-.934-13.467.266-44.4 4.8-42.267 6.133-45.067 6.933-45.067 12.133 0 .933 6.933 19.2 15.467 40.4 10.533 26.4 16.267 39.2 18.133 40.134 4 2.133 8.134-1.467 14.4-12.8 3.067-5.467 6.134-10 6.8-10 .667 0 4.134 2.133 7.734 4.666 36.133 25.334 87.6 45.067 136 52.267 21.467 3.2 67.067 3.067 88.134 0 104.267-15.867 189.468-75.333 239.601-167.601 12.4-22.533 24-54.667 30.134-82.667 5.466-24.8 6.933-38.8 6.8-68.667 0-30-1.867-46.667-8-72.667-6.134-26.266-9.734-34.667-14.534-34.667-.933 0-10.8 5.334-22 11.734Z"/><path d="m444.269 263.068-28.267 28.267 12.667 12.667 12.667 12.666 28.933-29.067 29.067-28.933-12-12c-6.534-6.533-12.534-12-13.334-12-.8 0-14.133 12.8-29.733 28.4Zm-100.001-5.333c-8.133 8.266-14.933 15.6-14.933 16.266 0 .8 5.467 6.8 12 13.334l12 12 16-16 16-16-12.266-12.267c-6.8-6.8-12.667-12.4-13.067-12.4-.4 0-7.467 6.8-15.734 15.067Zm-144.4 112.534c-24.667 24.8-45.867 46.533-47.067 48.4-2.667 4.133-2.8 16.133-.267 21.067 2.933 5.333 32.934 34.533 37.2 36.133 5.2 2 12.267 1.867 17.334-.4 2.4-1.067 24.533-22.133 49.6-47.333l45.334-45.467-28.667-28.667-28.667-28.667-44.8 44.934Z"/></symbol><symbol viewBox="0 0 80 88" id="icon-palma" xmlns="http://www.w3.org/2000/svg"><path fill-rule="evenodd" d="m21.63 88 .42-.28a34.56 34.56 0 0 1 7.73-3.46c1.12-.34 3.18-.77 4.65-.98l.58-.09.51-1.22c.29-.67.75-1.9 1.04-2.73 3.96-11.59 5.15-26.53 3.49-43.44-.36-3.61-.5-4.47-.87-5.38l-.34-.83-.19.24c-.69.86-1.78 2.68-2.72 4.54-1.05 2.06-1.12 2.15-1.21 1.86-.2-.65-.22-2.92-.03-3.93.13-.84.85-3.5 1.07-4 .06-.16 0-.18-.65-.18-2.58.02-5.22 1.15-7.94 3.43l-.96.8-.03-.31c-.03-.3.24-2.47.37-2.97.07-.22 0-.18-.54.27-.34.3-.9.9-1.26 1.37-.36.47-1.37 1.6-2.25 2.5-.88.9-1.93 2.08-2.33 2.61-.73.97-.74.98-.83.7-.15-.48-.22-4.1-.08-4.5.06-.18.1-.35.07-.37-.1-.1-1.22 1.39-1.7 2.27-.78 1.38-4.83 7.88-4.9 7.84-.02-.03-.08-1.12-.12-2.44l-.07-2.4-1.25 1.36a39.74 39.74 0 0 0-5.73 8.36c-.47.98-.77 1.48-.82 1.39-.26-.47-.46-2.37-.46-4.28 0-2.32.23-3.92.86-5.99 2.2-7.29 8.49-12.75 16.62-14.41 3.86-.8 9.02-.7 13.1.26.48.12-1.43-.82-2.53-1.24a32.47 32.47 0 0 0-5.16-1.35 74.83 74.83 0 0 0-4-.54c-.08 0 1.45-1.46 1.82-1.72.26-.18.22-.18-1.43-.14-2.4.06-6.37.77-7.83 1.39-.12.05-.18.05-.15-.01l.76-1.3c.38-.65.7-1.2.7-1.24 0-.03-.12-.05-.27-.05-.56 0-1.61.35-2.85.95-.7.34-1.85.82-2.55 1.06-.7.26-1.5.57-1.78.7-.34.18-.5.22-.5.13.01-.22.4-1.02.9-1.83.27-.42.48-.82.48-.88 0-.15-2.25.63-3.55 1.25-.53.24-1.5.63-2.17.86a29.2 29.2 0 0 0-4.36 2.01c-.18.13-.35.2-.38.16-.1-.1.95-2.2 1.57-3.1 5.01-7.48 14.57-10.24 23.73-6.86a28.66 28.66 0 0 1 10.78 7.5c1.64 1.86 1.6 1.84.76.17a31.73 31.73 0 0 0-5.1-7.36c-.5-.52-.92-1-.92-1.07 0-.17-1.73-1.55-2.92-2.33a29.1 29.1 0 0 0-2.2-1.27c-.99-.51-1.25-.68-1.25-.86 0-.3.33-.36 1.9-.36a6.4 6.4 0 0 1 2.3.27c.13.06.08-.04-.17-.3-.2-.2-1.04-.78-1.85-1.28-.82-.5-1.6-1-1.75-1.1-1-.78-3.7-1.73-5.94-2.1l-.8-.12.75-.34A16.35 16.35 0 0 1 24.76.02c7.95 0 14.05 6.88 15.34 17.31a22.63 22.63 0 0 1 .2 2.19c.04-.02.18-.76.33-1.63a26.94 26.94 0 0 1 2.33-7.54c1.17-2.4 2.8-4.61 4.68-6.3A15.92 15.92 0 0 1 59.45.02c.61.05 1.42.13 1.8.2 1.64.3 3.82 1.05 4.85 1.69l.5.3-.53.07c-1.24.16-10.3 2.37-10.52 2.56-.02.02.41.13.95.26 1.63.37 3.06.76 3.06.85 0 .03-.28.15-.62.25a40.32 40.32 0 0 0-7.02 3.2c-.53.32-.95.6-.95.61 0 .01.5.02 1.14.02 1.06.01 1.62.13 1.62.35 0 .04-.5.43-1.12.85a37 37 0 0 0-6.66 5.85c-.62.78-1.66 2.31-2.22 3.3-.24.4-.04.24 1.17-.96 6.33-6.25 14.52-9.05 21.98-7.53 1.58.32 2.86.77 4.5 1.59a17.37 17.37 0 0 1 8.58 9.63c.08.25.07.25-.32-.07a27 27 0 0 0-4.6-2.63c-1.26-.61-2.93-1.43-3.72-1.83a23.42 23.42 0 0 0-3.5-1.5c-.05 0 .05.13.2.3.69.7 2.36 2.97 2.76 3.72l.13.22-.55-.21c-.3-.12-1.28-.43-2.2-.7-.93-.26-2.18-.72-2.87-1.05-.68-.32-1.59-.69-2.02-.83a76.1 76.1 0 0 1-1.37-.48c-.3-.13-.58-.22-.6-.2-.04.03.46.5 1.09 1.05.63.57 1.28 1.18 1.46 1.36l.32.35-.27-.06c-.15-.04-.98-.12-1.85-.18-2.77-.2-4.01-.32-4.95-.51l-.93-.2.58.67.58.65-.88.01c-1.97.04-5.46.6-7.6 1.24-1.3.4-3.74 1.32-3.68 1.4.03.01.47-.05.99-.15 1.26-.23 5.69-.32 7.4-.15 5.02.48 9.34 2.06 12.96 4.76 1.2.89 3.5 3.2 4.39 4.38a20.52 20.52 0 0 1 3.92 10.43c.15 1.48.08 3.7-.17 5.07-.23 1.32-.28 1.38-.57.58a29.45 29.45 0 0 0-4.2-7.3 35.47 35.47 0 0 1-3.21-4.5c-.3-.51-.56-.99-.58-1.05-.12-.32-.15.07-.08.78.05.44.12 1.94.16 3.34l.08 2.55-.87-1.38a23.5 23.5 0 0 0-2.28-3.18 18.1 18.1 0 0 1-2.34-3.6c-.5-.94-1.09-1.95-1.3-2.23-.21-.3-.5-.77-.67-1.05l-.28-.52.05.73c.05.84.25 2.23.64 4.27.13.77.23 1.43.2 1.46-.07.07-6.25-5.93-6.46-6.26-.08-.13-.5-.53-.91-.9l-.75-.67.25.68c.21.55.7 2.72.7 3.1 0 .05-.49-.38-1.07-.95a21.44 21.44 0 0 0-6.16-4.19c-.63-.3-1.18-.53-1.2-.53-.03 0-.05.46-.05 1.02 0 .9-.04 1.1-.33 1.8l-.32.78.59 3.26a157.7 157.7 0 0 1 2.38 17.42c.75 9.68.07 22.45-1.63 30.52a9.9 9.9 0 0 0-.23 1.23c0 .01.44.08.97.15 4.05.56 9.48 2.63 12.37 4.66H21.63Zm20.1-51.52c.51.01 1.1-.18 1.46-.49l.3-.25-.45.22a5.9 5.9 0 0 1-1.06.36c-.51.13-.55.15-.25.16Zm.93 5.06c.56-.03 1.52-.38 1.52-.55a7.9 7.9 0 0 1-1.22.35l-.95.24.65-.04Zm.52 5.3c.66-.03 1.75-.38 1.75-.56 0-.03-.09-.02-.2.02-.1.05-.65.2-1.24.33l-1.06.25.75-.04Zm-.7 6.18c.36.24 1.25.25 2.02.02.4-.13.74-.25.74-.29 0-.03-.08-.03-.19 0a13 13 0 0 1-2.44.22c-.2-.05-.24-.03-.12.05Zm.27 5.8c.64.2 1.33.17 2.11-.06.38-.13.7-.25.7-.28a11.36 11.36 0 0 1-1.8.15c-1.35.05-1.4.06-1 .19Zm-.58 5.73c.53.24 1.74.3 2.5.13l.63-.15-1.6-.05a72.6 72.6 0 0 1-1.74-.07c-.09-.01 0 .06.2.14Zm1.15 6.16c.5-.03 1.08-.12 1.28-.2.35-.15.33-.15-.43-.11-.43 0-1.24-.02-1.79-.07C41 70.2 41 70.2 41 70.25c0 .02.32.15.7.27.6.2.87.24 1.62.2Zm-.7 6.06c.74-.01 1.75-.15 1.4-.2-.84-.08-3.89-.56-4.13-.63-.5-.16-.56-.13-.16.1.8.44 1.98.74 2.9.73Zm-.72 5.52a16.2 16.2 0 0 0-2.75-.5c-.07-.02 0 .04.16.13.66.36 1.65.6 2.69.65l1.07.05-1.17-.33Z" clip-rule="evenodd"/></symbol><symbol viewBox="0 0 17 19" id="icon-rouble" xmlns="http://www.w3.org/2000/svg"><path d="M3.492.192c-.071.135-.112 1.65-.112 4.465v4.269H1.813c-1.086 0-1.608.041-1.69.125C.04 9.134 0 9.59 0 10.4c0 1.225 0 1.236.266 1.329.144.062.901.104 1.69.104H3.38v1.558H1.813c-1.086 0-1.608.041-1.69.124-.164.166-.164 2.181 0 2.348.082.083.604.124 1.69.124H3.38v1.309c0 .716.05 1.391.102 1.506.102.176.225.197 1.413.197.881 0 1.352-.041 1.434-.125.082-.083.123-.57.123-1.506v-1.38h3.42c2.98 0 3.452-.022 3.585-.167.205-.208.235-2.108.04-2.306-.091-.093-1.023-.124-3.584-.124H6.452v-1.527l2.847-.062c2.181-.042 2.98-.094 3.451-.218 2.13-.603 3.666-2.202 4.097-4.269.655-3.157-.83-5.95-3.697-6.98l-.81-.29L7.969.015C3.687-.016 3.595-.016 3.492.192Zm8.531 2.918c.635.25 1.26.81 1.546 1.402.297.613.287 2.223-.02 2.804a3.085 3.085 0 0 1-1.413 1.32c-.482.228-.656.238-3.093.27l-2.591.04V2.903H8.96c2.274 0 2.55.021 3.062.208Z"/></symbol><symbol viewBox="0 0 30 32" id="icon-search" xmlns="http://www.w3.org/2000/svg"><path class="jpath1" d="M20.571 14.857q0-3.304-2.348-5.652t-5.652-2.348-5.652 2.348-2.348 5.652 2.348 5.652 5.652 2.348 5.652-2.348 2.348-5.652zm9.143 14.857q0 .929-.679 1.607T27.428 32q-.964 0-1.607-.679l-6.125-6.107q-3.196 2.214-7.125 2.214-2.554 0-4.884-.991t-4.018-2.679T.99 19.74t-.991-4.884.991-4.884 2.679-4.018 4.018-2.679 4.884-.991 4.884.991 4.018 2.679 2.679 4.018.991 4.884q0 3.929-2.214 7.125l6.125 6.125q.661.661.661 1.607z"/></symbol><symbol viewBox="0 0 32 28" id="icon-telegram" xmlns="http://www.w3.org/2000/svg"><path d="M23.32 9.35c.981-.982 1.956-3.272-2.134-.491A703.894 703.894 0 0 1 9.65 16.632a4.799 4.799 0 0 1-3.763.081C3.432 15.977.568 14.996.568 14.996s-1.956-1.229 1.392-2.537c0 0 14.154-5.809 19.063-7.855 1.88-.818 8.262-3.435 8.262-3.435s2.946-1.147 2.7 1.636c-.081 1.145-.736 5.156-1.39 9.49-.983 6.136-2.046 12.846-2.046 12.846s-.164 1.88-1.554 2.208a6.733 6.733 0 0 1-4.09-1.472c-.327-.245-6.135-3.928-8.263-5.727a1.551 1.551 0 0 1 .082-2.619A301.152 301.152 0 0 0 23.32 9.35Z"/></symbol><symbol viewBox="0 0 23 24" id="icon-time" xmlns="http://www.w3.org/2000/svg"><path d="M9.35.71a11.4 11.4 0 1 0 9.95 19.43c.18-.2.19-.22.17-.4a.53.53 0 0 0-.11-.25 23.4 23.4 0 0 0-1.94-1.31c-.19-.04-.3 0-.73.35a8.41 8.41 0 0 1-4.1 1.78l-.43.06-.01-.58c-.02-.64-.07-.78-.3-.98a.7.7 0 0 0-.9 0c-.23.2-.28.34-.3.98l-.01.57-.41-.05a8.48 8.48 0 0 1-7.24-7.42l-.03-.23.64-.01c.58-.02.64-.02.78-.12.35-.25.4-.75.1-1.08-.2-.22-.35-.26-1-.26h-.52l.03-.23a8.55 8.55 0 0 1 6.79-7.33c.23-.06.34-.1.4-.2.1-.11.11-.14.11-1.3V.93l-.12-.12c-.16-.17-.3-.2-.82-.1ZM12.83.66a.5.5 0 0 0-.2.15l-.12.14v1.18c0 1.48-.05 1.37.77 1.55.5.12.6.13.72.08a.5.5 0 0 0 .2-.16c.09-.14.84-1.84.89-2.01.05-.16-.05-.4-.19-.48a9.6 9.6 0 0 0-2.07-.45ZM17.32 2.4a.44.44 0 0 0-.23.2c-.19.3-.9 1.97-.9 2.11 0 .2.06.28.4.54.16.13.43.36.59.52.34.31.46.37.65.32.2-.06 1.86-1.4 1.92-1.54.08-.23 0-.38-.4-.77a8.47 8.47 0 0 0-1.8-1.4.54.54 0 0 0-.23.03ZM20.94 6.52a35 35 0 0 0-1.81 1.44c-.09.12-.07.38.04.63.16.38.38 1.05.49 1.5.08.37.11.45.23.55.07.06.18.1.26.1.32 0 2.12-.18 2.23-.22.27-.1.3-.27.16-.95-.22-1.1-.89-2.82-1.16-3.01a.56.56 0 0 0-.44-.04Z"/><path d="M8.16 6.94c-.22.07-.6.46-.66.68-.07.25-.06.57.02.76.03.09.54.83 1.13 1.66l1.06 1.5v.34c0 .57.26 1.05.7 1.36.3.2.53.27.93.27.3 0 .4-.02.61-.11.14-.07.33-.18.4-.25l.16-.14h1.26c1.17 0 1.29 0 1.51-.09.83-.31.94-1.47.17-1.93a1.44 1.44 0 0 0-.44-.17c-.11-.01-.72-.03-1.36-.03H12.5l-.16-.14a1.53 1.53 0 0 0-.66-.32c-.13-.03-.27-.21-1.2-1.53a32.79 32.79 0 0 0-1.22-1.63 1.15 1.15 0 0 0-1.1-.23ZM21.01 12.88c-.49.05-.94.11-1.01.14-.16.06-.22.2-.32.64-.15.7-.4 1.4-.77 2.18-.14.3-.14.46 0 .62.05.06 1.63 1.16 1.8 1.25.15.08.35.06.5-.06a10.2 10.2 0 0 0 1.5-4.53.6.6 0 0 0-.15-.22c-.15-.13-.28-.14-1.55-.02Z"/></symbol><symbol viewBox="0 0 32 33" id="icon-whatsapp" xmlns="http://www.w3.org/2000/svg"><path d="M20.536 17.736c.174 0 .846.31 2.016.933 1.17.622 1.793.996 1.867 1.12.025.05.038.15.038.299 0 .448-.112.958-.336 1.53-.224.573-.722 1.046-1.494 1.42-.772.373-1.481.56-2.128.56-.797 0-2.116-.436-3.958-1.307a11.613 11.613 0 0 1-3.547-2.464c-.996-1.02-2.017-2.303-3.062-3.846-1.02-1.494-1.518-2.838-1.494-4.033v-.186c.05-1.245.56-2.34 1.531-3.286.349-.299.71-.448 1.083-.448.1 0 .224.012.373.037.15.025.287.037.411.037.274 0 .46.038.56.112.1.075.2.274.299.598.124.274.361.884.71 1.83.348.945.522 1.456.522 1.53 0 .299-.236.71-.71 1.232-.472.523-.721.847-.746.971 0 .075.037.175.112.299.473 1.02 1.182 1.966 2.128 2.838.772.746 1.817 1.456 3.137 2.128.174.1.348.15.522.15.175 0 .536-.337 1.083-1.009.548-.672.909-1.02 1.083-1.045ZM16.28 28.788c1.768 0 3.46-.349 5.079-1.046 1.617-.697 3.011-1.618 4.181-2.763 1.17-1.145 2.104-2.539 2.8-4.182a12.88 12.88 0 0 0 1.046-5.078 12.88 12.88 0 0 0-1.045-5.078C27.643 9 26.71 7.605 25.54 6.46c-1.17-1.146-2.564-2.079-4.182-2.8a11.908 11.908 0 0 0-5.079-1.046 13.328 13.328 0 0 0-5.04 1.045 12.995 12.995 0 0 0-4.182 2.8 12.995 12.995 0 0 0-2.8 4.182A13.418 13.418 0 0 0 3.21 15.72c0 2.813.834 5.365 2.502 7.655L4.07 28.228l5.04-1.606c2.191 1.444 4.58 2.166 7.17 2.166ZM16.28 0c2.141 0 4.182.423 6.124 1.27 1.942.846 3.61 1.954 5.003 3.323 1.394 1.369 2.514 3.049 3.36 5.04.847 1.992 1.258 4.02 1.233 6.086-.025 2.066-.436 4.095-1.232 6.087-.797 1.991-1.917 3.659-3.36 5.003-1.444 1.344-3.112 2.464-5.004 3.36-1.892.896-3.933 1.32-6.123 1.27-2.689 0-5.215-.66-7.58-1.98L0 32.26l2.838-8.438c-1.494-2.464-2.24-5.165-2.24-8.103 0-2.14.41-4.169 1.232-6.086a16.25 16.25 0 0 1 3.36-5.04 14.553 14.553 0 0 1 5.003-3.324A17.832 17.832 0 0 1 16.28 0Z"/></symbol><symbol viewBox="0 0 29 29" id="icon-x" xmlns="http://www.w3.org/2000/svg"><path d="M24.4 1.065a1 1 0 0 1 1.414 0l2.121 2.121a1 1 0 0 1 0 1.414L4.601 27.935a1 1 0 0 1-1.415 0l-2.121-2.121a1 1 0 0 1 0-1.415L24.399 1.065Z"/><path d="M27.935 24.4a1 1 0 0 1 0 1.414l-2.121 2.12a1 1 0 0 1-1.415 0L1.066 4.6a1 1 0 0 1 0-1.414l2.121-2.121a1 1 0 0 1 1.415 0l23.334 23.334Z"/></symbol></svg>