<svg xmlns="http://www.w3.org/2000/svg" width="1067" height="900" fill="none"><path fill="#000" d="M1052 59h-21c-6 0-12 1-16 3-5 2-6 2-3-2l1-2c-2-1-14 3-16 5l-3 2v-5c1-6 0-7-6-5s-12 8-14 13c0 2-1 3-2 2l1-3c2-3 2-15 1-16-2-1-11 4-12 6-2 3-5 4-5 1 1-5-2-2-6 4l-4 7 1-9c2-15 0-20-6-18a678 678 0 0 0-26 49l4-12c2-5 2-11 1-20l-1-8c1-2-1-14-2-13-3 0-9 10-14 20a272 272 0 0 0-17 51c1 0-10 9-12 8l2-2c7-6 12-24 9-33-1-2-1-4-2-3v-4l-1-6-1-3c3-4 0-33-3-35-3-1-5 2-12 14-6 10-7 13-7 17v4c-2-3-4 1-3 8 1 5 1 7-1 6-1-1-2 0-2 3-3 7-2 13 0 21l2 7-2-3c0-2-1-2-2 0-2 3-1 15 2 18 1 3 1 3-10 10l-16 9-5 2 5-3c12-7 15-10 16-15 3-10 2-32 0-28-1 2-2-1-1-5v-8c-1-2-2-4-1-6l-3-15-2 1c0 5-2 1-2-4 0-3-1-13-4-21-4-15-4-15-7-14-2 1-4 3-6 10-3 4-5 10-5 11l-2 6c-2 1-2 4-2 7s-1 5-2 5c-2 1-2 10 0 12 1 1 0 3-2 5-1 3-2 5-1 9v6c-1 3 3 20 5 21l1 2c0 2 0 1-1 0-3-3-4 2-1 10 2 8 6 13 11 14 3 1 3 1 0 2-4 1-22 11-30 17-10 6-9 4 1-4l8-6 2-9c3-10 2-22-1-22l-5 6-4 7 2-6c4-7 6-16 5-25-1-6-2-7-5-2l-2 4 1-4 2-8c2-5 0-14-4-15-2 0-3-2-2-4l-3-17-3 1c-1 2-2 0-1-5a64 64 0 0 0-8-33c-4-10-4-10-12 9-5 15-6 17-5 22 1 4 1 4-1 3-3-2-4 7-1 13l2 6-8-4 1 7c0 5 2 9 4 13 5 6 6 10 1 5-4-3-5-1-4 8 0 7 2 10 8 16l4 5-4-3c-6-5-7-2-4 10 2 8 3 10 7 13 5 4 5 4 1 3-5-1-6 1-4 8 2 6 11 16 14 15l1 1a443 443 0 0 1-34 19c12-7 17-19 15-34-2-8-4-8-9 0l-7 9 2-4c2-3 5-8 6-14 3-8 3-11 1-18l-2-8-3 3c-5 8-9 12-10 12l3-6c6-8 8-18 6-25l-3-7c-2-1-2-1-2 1 1 1 0 5-2 9-2 5-3 6-4 5-2-1-2-2 0-3 3-3 6-20 5-25l-2-4-6 10 2-5c2-9 0-28-5-28l-2-6c0-3-1-8-3-10-4-11-6-19-5-20v-1l-4-7-5-7-13 30v9c1 3-1 5-3 2-1-1-2-1-3 3-2 6 0 13 5 20l4 7-4-3c-6-5-7-6-8-4-1 3 3 15 9 21 3 5 4 6 1 4l-6-4c-2-4-3-4-5 0-2 9 4 24 15 33 9 8 6 8-5 1-5-4-8-5-9-5l3 11a319 319 0 0 1 8 16l1 1 1 2 7 8c6 5 6 6 4 6l-6-1c-2-1-4 1-3 7 2 17 8 28 16 31l5 2-9 6-17 13c-13 12-24 19-24 17 0-4 1-6 9-10 9-5 13-9 15-19 4-14 4-35-1-41-1-2-1-2-7 9-3 7-6 11-7 11v-3c3-6 8-21 9-30 0-8-1-17-4-19l-7 11-9 12c-2 1-2 0 2-6 4-7 8-19 8-27l-4-20c-1-1-3 1-4 5-3 7-7 13-9 12l3-6c5-6 5-13 2-24l-1-9-2-3c-3-1-3-1-3 1l-4 6c-3 4-3 4-1-7 2-8 2-12 0-17l-1-7v-1l-3-3-2-3-2 4-2 5v-9c0-9-2-17-7-28l-1-3c1 2 2 2 1 0 0-1 0-2-1-1-2 0-4-5-2-6v-1c-1 1-3-2-4-5l-5-6c-1-1-12 27-14 37l1 8c1 3 1 3-1 0-4-4-5-2-5 7 1 7 7 19 13 25 3 3 3 5 0 4l-1-2-2-3c-3-1-3-1-1 1 2 3-2 1-5-3s-5-2-4 6c0 6 1 8 7 15l8 9 2 1v1c-1 2-5 0-10-6l-6-5-1 4c-2 13 4 29 11 33 5 3 12 10 11 11l-10-6-11-7c-2 0-1 6 1 12l5 12 2 4 4 4c2 3 5 7 9 9 6 3 6 3 3 4l-8-1h-6c-1 1 0 5 1 9 2 8 5 11 20 20 8 5 7 6-2 3l-8-1c-2 0 1 12 5 21 3 5 5 8 10 10 3 2 7 4 10 4s4 0 5 4l1 3-8 6a1416 1416 0 0 0-50 39v-3c0-2 2-4 7-8 14-11 17-15 21-26 2-8 2-10 0-19l-6-16-4-5-2 6-5 11c-2 5-3 5-3 2v-5c3-5 7-18 8-25 0-7-3-23-6-24v2l-7 7-7 9c-1 0 0-4 3-9 2-5 4-10 3-11v-2c1-1 2-3 3-11 0-6-3-23-5-23l-9 12-8 12 3-10c7-17 7-35 1-45l-3-3-3 6c-3 7-8 16-9 14l3-11 4-16c1-7-3-18-5-17l-5 5-4 5 1-9c1-10-1-20-5-26l-2-3-3 4-2 5 1-8c0-8 0-10-8-24l-9-20-7-14-2-4-2 5-9 30c-2 11-2 15 1 22 1 3 1 3-2 1-2-2-3-3-4-1-2 4 0 13 3 19l5 8c0 2 2 4 4 5 3 2 3 2 1 2s-4-2-8-6c-5-5-6-6-8-5v9c3 11 5 15 14 23l7 9-8-6-10-5 1 2v2c-1 3 3 18 7 24 2 4 6 8 12 12 9 6 10 7 8 8-1 1-6-2-13-6-10-6-11-7-12-4-1 2 6 18 12 27 3 5 5 7 15 12 10 6 11 7 10 8h-5l-10-4-10-5c-1 3 4 21 9 28 5 8 5 9 16 14 7 3 11 6 10 6 0 1-17-2-20-4-2-1-3 2-1 9 3 9 9 18 18 27l7 8-6 1c-6 0-8 2-6 5v2c-1 1 0 5 4 12 2 5 17 13 24 13 5 0 5 0 3 2l-15 13a1425 1425 0 0 0-39 32c0-2 1-5 6-10 4-4 9-11 12-17 8-15 8-26 2-49l-7-18-6 13c-5 14-8 19-10 19-1-1 0-3 1-6 4-12 7-25 7-37s0-15-4-21c-5-10-6-10-8-3-1 5-6 15-11 24-2 3-4 1-2-2 7-13 11-48 6-58-2-4-8-10-8-7s-9 23-11 25c-3 2-3-2 0-7 2-4 5-22 5-34 0-8-4-20-6-22-2-1-3 0-7 9l-7 11c-2 1-2 1 1-10 4-11 4-25 1-33-4-10-5-10-10-1-2 5-4 7-5 7v-4c4-7 2-24-3-32-3-5-4-4-5 2-1 3-2 4-4 5l-1-8c1-6 0-10-3-17-4-10-5-12-5-7l-2-4-6-15-5-9-1-2-7-10c-4-6-7-10-8-9a196 196 0 0 0-11 50c-1 3 2 12 7 19s3 6-4 0c-5-4-6-3-4 7 2 9 8 19 16 26l6 6-14-6c-5-4-5-4-6-1-1 8 3 21 9 24l7 5 4 4-4-1 3 2c5 2 7 4 5 4l-10-5c-9-4-11-4-11 1l7 26c3 4 25 19 25 16l3 1 3 2c-3 1-20-3-23-5-5-2-5 0-2 10 4 15 10 23 27 33 9 5 10 6 5 5-3 0-9-3-14-5l-11-4c-2 0-3 0-1 7 4 17 11 27 26 35l11 6-4 1-12-3-9-4 3 9c6 18 16 30 32 38l10 4-6 1-10 2h-5l2 7c2 9 5 13 13 19 13 10 25 14 34 10h5c2 1 0 4-10 14-12 12-53 54-61 64l-4 5 1-6c0-5 1-6 8-12 18-15 25-25 28-39 1-7 1-10-2-20-4-11-7-19-9-20-1-1-5 6-12 17l-11 17c-2 1-1-3 4-10 11-21 13-29 10-46-2-8-7-18-10-17l-4 7c-5 13-13 24-13 17 0-3 1-5 1-2 1 2 1 2 2-1l3-11c4-14 4-22 0-39-3-13-5-13-10-2-4 9-8 14-10 13l-1-1c3-3 6-15 7-26 1-15-2-29-7-35-4-5-6-6-5-2s-8 25-12 27c-2 2-2 1 1-7l5-16c2-10 1-30-2-38-2-6-7-13-8-12l-4 11c-1 6-4 12-5 14-2 3-2 3-4 0-2-2-2-3-1-5l1-1 1-6c4-10 4-17 1-28-4-12-7-14-10-7-4 9-5 9-4 0l-1-13c-1-6-6-18-8-19-1-1-3 2-5 7l-3 7v-8c0-13-4-24-10-31-3-3-4-3-6 2-1 2-2 1-2-4l-3-7-8-12-29-37c-1 0-2 40-1 52 0 6 1 14 3 18v7c-2-1-2 0-2 6 0 12 7 24 20 32 11 7 6 7-7 0l-11-5 2 8c4 14 8 19 21 26l10 6h-5c-4-1-8-2-13-5-8-4-9-3-6 8 2 9 6 15 14 22 4 3 6 6 5 6v1c2-1 4 0 6 1l10 4c4 2 6 3 5 4-2 1-9-1-18-5-8-3-12-4-15-3-4 1-1 9 6 19 5 7 7 9 16 14l17 9 6 4c-1 1-16 0-25-3-8-2-9-2-8 0 0 4 5 14 12 23 3 5 6 7 19 15 12 7 14 8 11 8-1 1-4 0-6-2-5-2-11-3-8-1s-5 0-9-2l-4-1c-2 2 2 16 6 21 8 12 13 16 27 24l13 8c-1 2-14 2-21 1h-7l1 4c3 11 21 30 32 36 5 2 8 4 7 5-1 2-12 3-17 1l-5-2 3 8c4 13 17 28 26 31 6 2 15 3 22 2h7l3 2-9 8-26 28-40 44-1-4c0-3 2-6 6-12 12-15 20-38 20-54 1-12-9-34-14-32l-7 9c-11 18-14 18-7 1 6-14 9-27 8-36s-6-26-9-26c-1 0-3 3-6 10-5 10-10 16-12 15v-5c7-19 9-35 6-48-3-10-8-21-11-21l-7 10-8 12c-2 2-2 2-2-1l5-13c4-13 5-18 4-31-1-12-3-18-6-20l-3-4c-1-1-2 0-8 10-3 7-7 13-9 14l-3 3v-5l4-8c4-6 5-21 2-35-2-11-8-23-11-23-1 0-3 3-4 7-3 8-9 17-11 16v-3c1-2 2-3 3-2v-1c-1-1 0-4 1-7 4-12 4-13 1-24s-7-19-12-20c-1 0-2 1-2 5-1 6-5 13-7 13l-1-3c2-4 0-21-2-27-2-4-7-12-10-13-2-2-2-2-3 4l-2 10c0 7-1 5-2-7-1-9-2-12-8-21l-11-13-8-8a326 326 0 0 0-24-28l-2-2-6-6-2-4-1 12c-2 17-1 31 1 41 2 8 3 10 6 12l4 4-4-2c-4-3-5-3-6-1 0 1 0 6 2 10 2 10 9 18 17 23 3 2 4 2 2 2-1 1-5-1-9-4l-8-3c-1 1 3 16 5 19 4 5 12 11 21 17l8 6c-2 1-11-2-17-5-4-3-6-3-6-2-2 3 1 12 7 21 4 7 5 7 14 12l14 6c3 1 4 2 2 3l-2 1c0-1-2-2-5-2l-11-4c-8-3-10-2-11 4 0 5 5 13 14 22 8 9 14 12 26 16s12 4 8 5-18-1-23-4c-4-2-9-1-9 3s4 13 8 20c5 6 6 7 20 15 16 10 16 10-4 6a547 547 0 0 0-16-2l3 7c9 17 19 27 35 35l15 6c3 1 7 5 4 5l-31-4-8-2 3 7c3 9 9 19 18 28 7 8 7 8 17 12l11 4a138 138 0 0 1-32 0c-1 1 5 13 12 24 6 8 7 9 16 14 7 5 11 6 15 6l5 1c1 1-12 3-19 3h-7c-3 1 8 23 16 32s22 12 37 9l6-1 1 4 1 4-10 11a1070 1070 0 0 0-58 68l-1-4c0-4 1-5 9-16 10-14 12-18 14-32a95 95 0 0 0-18-63l-8 18c-2 6-5 10-6 9l2-9c3-13 5-24 4-34s-5-25-10-33c-4-6-5-5-7 6 0 5-2 10-5 15-6 10-8 10-5 0 6-25 6-35 2-54-2-10-8-21-9-19l-6 14c-6 17-9 21-11 19v-4c2-3 5-14 7-25l1-22c-1-11-2-15-6-21l-8-10-3-1v5l-8 27c-4 6-4 2-1-13l3-22c-1-16-10-36-16-37-3-1-3 0-3 8-1 10-6 27-10 27-1 1-1 0-1-1 3-7 3-6 5-23 1-13-2-27-7-32s-7-5-9 2c-2 9-3 8-5-3-1-9-2-13-7-20-5-9-9-12-9-8l-3 8c-2 6-2 6-3 3-1-2 0-4 1-5l-1-3-1-1c2-2 2-3 1-6l-1-3c-2 0-7-8-6-9s-6-7-8-7-2 3-2 9c0 9-1 7-3-7-1-8-5-14-24-33l-18-19c-2-2-2-1-2 7-1 14 1 47 4 54l6 8c6 6 6 8 0 5-6-4-7-4-7 1 0 10 6 18 17 24 10 6 7 7-5 1l-10-4c-1 2 0 12 3 17 5 10 11 15 27 20l10 5c1 1-10 1-17-2-11-3-12-2-9 7 3 10 9 17 22 24 9 4 14 6 25 7 2 0 2 0 0 2-3 1-13 1-17-1-2-2-16-4-19-4-1 1 0 4 1 9 4 15 19 29 37 33l12 3c9 3-8 5-22 2h-11c-3 1-3 1-1 6 4 7 9 14 15 19a101 101 0 0 0 37 19c1 2-10 1-20 0-7-2-11-2-12-1-1 3 7 19 14 27 8 8 14 12 25 14 9 2 22 7 21 8l-10 1h-28c-2-1-2 1 2 7 9 15 16 22 29 29 10 6 13 8 19 8 15 3 3 7-15 6l-10 1c0 2-1 1-3-2l-6-5-1 10c-1 8-2 11-6 19-3 6-6 9-7 9l1-8c7-21 7-31 2-49-3-8-8-19-11-21l-1 3-12 28c-2 5-4 3-3-3 5-18 5-25 4-41-2-15-10-33-17-37-4-3-5 0-5 12 0 11-2 22-7 28-2 3-4 3-2 0l3-12c2-10 2-13 0-26-2-7-4-16-6-19-2-6-15-19-17-19-1 0-2 8-1 10l1 4c0 3-1 3-1 2-1-1-1 1-1 4l-1 5-1 4v4l-1-4-1-14c0-13-3-23-11-32l-7-7-1 7c1 5 0 8-2 9-3 3-4 2-4-4l-1-8-1-5v-4c0-2-1-2-1-1 0 2-1 1-3-3-2-5-7-10-10-9-2 0-3 0-3 4 0 7 0 7-3-1-2-7-3-8-12-14a398 398 0 0 1-36-29v14c2 18 9 46 13 49 2 3 2 3 0 2-4-2-5 0-3 7 3 10 9 17 24 29 4 3-7 2-12-1-7-4-8-1-5 9 4 11 8 15 18 18l13 4 5 2h-5l-14-1h-9c-2 2 3 15 8 22 4 5 7 8 12 11 8 4 28 9 35 9 4 0 4 0 2 1-5 3-13 3-29 2H40c-1 2 1 5 8 13l12 13c6 8 22 17 32 19 10 1 10 1 8 3s-16 1-25-1-13-3-14-2c-1 2 5 13 12 21 12 14 37 29 50 29a328 328 0 0 0-36 5l-5-1 3 5 9 12 11 13c4 5 7 7 15 11l14 5c12 1 13 1 10 3l-28 2c-4-1-4 1 2 10 13 20 26 31 42 36 8 3 11 3 22 0l9-2 2 6v7a970 970 0 0 0-79 106l-5 8 3 5c3 7 11 12 20 12l6 1 7-11c36-54 59-85 77-107l22-26c8-10 9-11 11-10s2 2 0 5c-9 15-9 36 0 51 4 7 17 19 25 25l8 4 1-4 1-10v-29l1 7 1 7 4 11c6 17 8 21 22 30 12 8 16 9 16 6v-35c-2-15 0-12 4 6 4 15 6 19 11 27 6 8 8 9 18 16 18 10 16 10 18 3l-3-23c-3-16-4-22-1-20l5 12c7 19 8 21 17 32 10 11 19 18 29 22 4 1 5 1 6-1 1-1 0-5-1-8-4-9-10-31-8-33v-9l2 5c1 7 2 9 10 26l11 16c5 7 8 9 16 14 6 3 11 6 12 5v-7c1-1 0-7-2-13-4-10-5-19-3-20l5 10 7 16 8 12c6 10 24 21 27 15 1-1 0-9-1-17l-1-10c12 22 15 27 21 32s11 7 19 8c5 1 8-1 5-2-2-1-8-13-11-22-3-7-2-7 1-1 6 13 20 25 30 26h6c1-2-1-10-3-11v-1c1-1 2 1 4 3 2 4 12 11 18 12 6 2 14 2 14 1h1c2 3 53 4 53 1l-6-6-21-20a86 86 0 0 0-20-16c-6-2-6-3-5-5 2-3 0-6-6-9-3-3-19-6-26-6-4 0-5-1-2-1 3-1 3-1-1-2-3-1-4-1-1-2h7c12 3 14-1 6-8-10-8-19-12-33-12l-8-1 1-4c1-2 2-2 4-2 2 2 16 3 18 2 1 0 1-3-2-5-5-7-24-17-33-17-10-1-22 1-29 4-7 2-9 0-2-3l4-3 6-3 13-3c8-1 8-2 7-4-3-8-25-18-42-19a65 65 0 0 0-39 11c-2-1 14-13 30-21 6-4 7-5 2-9s-16-8-27-8c-10-1-31 3-37 7-5 3-6 1-3-3 4-4 16-11 24-13 8-3 9-5 0-10a64 64 0 0 0-65 3c-10 7-12 7-8 2s11-11 21-18c7-4 7-4 6-7-3-5-11-8-23-9-14-2-31 3-44 11l-9 5 4-5c2-3 7-8 12-11 4-4 8-7 7-8 0-1-3-4-7-6-9-4-25-6-36-5-12 2-27 12-38 27-3 4-10 7-10 5l19-22a1650 1650 0 0 0 63-72v7c-2 9-3 19-1 21 2 0 2 1 1 2-2 2 2 15 7 23 5 6 16 14 25 17 6 2 7 0 6-14v-12l4 10c3 14 9 20 27 31l14 7-1-18v-18c1-2 2 1 5 11 5 18 15 31 30 39l13 5c5 1 5 1 5-4l-2-12c-5-18-3-22 2-7 4 9 13 24 18 29l15 8c13 7 14 6 12-4l-4-23 3 5 8 15c6 10 15 18 29 24 13 5 14 5 10-5-4-8-8-22-7-24l4 6c5 12 16 25 26 32 9 6 19 10 21 7l1-3c-3-6-7-24-7-25 2-2 3-1 6 8 7 16 9 19 20 26 14 9 20 8 14-3-2-4-3-11-1-12l4 5 5 5v1c-1 1 21 14 26 16 4 1 5-2 1-10-5-9-4-9 2-1l6 8c2 1 2 1 0-1l7 2c5 4 8 4 10 3h3l1 1-1-4c-1-2 0-2 4 1 5 4 7 4 26 6 24 1 41 0 42-1 1-2-2-4-14-12l-19-15c-10-8-10-8-16-9s-6-1-3-2c6-2 5-3-2-7s-12-5-20-5c-7 1-5-2 3-4s9-4 1-8c-9-5-23-8-35-6l-5-1c0-2 12-5 19-4h7c1-3-2-7-10-12-12-6-27-9-38-6h-7c1-2 4-3 14-6 11-4 11-5-3-13-10-6-11-6-23-7a103 103 0 0 0-32 2c-2-1 3-4 16-8 14-4 15-4 14-7-2-4-18-12-28-13-9-2-24 0-35 5l-10 3c-1-1 4-5 11-8l7-4 7-4c4-2 7-4 6-5 0-3-18-11-26-12-10-1-23 2-33 6-5 2-9 4-10 3l-2-2 15-11 13-10c-1-2-13-8-20-9-10-1-23 0-30 2-3 0-11 4-17 7l-11 5c-1-2 17-15 25-19 6-3 8-4 7-6-2-4-14-8-27-9-17-1-28 2-43 12l-11 7 12-11 14-13c2-3-13-8-28-9-10-1-14-1-20 1-10 4-19 11-27 21-4 6-7 8-10 9h-4c-1-2 80-92 83-93 2 0 3 6 2 10-1 5-1 21 2 28 2 8 11 21 18 26 3 3 9 6 14 7 8 3 8 3 9 0l1-7-2-14-1-11 4 11c2 6 7 14 10 19 5 8 7 9 15 14 14 8 22 11 23 9 1-1 0-7-2-14-4-14-6-28-5-30 1-1 3 4 5 11 3 15 6 20 20 33 11 11 16 14 23 15 6 2 7-2 3-16l-3-14v-5c-2-3-1-8 1-7l2 5c2 18 13 37 31 49 7 6 9 7 14 7h6l-4-16-4-15 10 13c8 13 10 15 18 20 7 5 11 7 17 8l8 2c1 0 0-7-2-8s-7-14-6-15v-7l4 8c3 9 8 14 21 22 10 5 22 9 24 7l-5-9c-3-5-7-10-7-12-1-3-1-3 4 1l10 9 14 10c15 9 22 7 13-3-5-6-8-11-3-6l6 5c1 0 2 1 1 2-2 0 14 8 20 9 7 2 10 1 8-2s-2-3 4-1c8 3 35 5 52 3l13-1-20-13a152 152 0 0 0-43-25l4-1c7 1 5-3-2-8l-13-3-9-1c-1-1 2-2 4-2l5-3-7-5c-8-5-15-6-28-5-7 1-9 0-8-1 0-2 3-3 6-4l8-4c5-2 2-4-12-10l-14-4h-11c-10 2-17 3-18 2 0-2 8-6 17-8 12-3 11-5-3-10l-16-5c-8-1-22 0-26 2-7 3-12 5-13 3 0 0 3-3 10-6 12-6 17-9 18-11s-5-5-14-8c-8-3-27-4-36-2-4 1-10 3-13 6l-6 4 4-6c2-4 7-8 12-11 10-6 11-8 4-11-4-3-19-6-26-6-9 0-21 3-30 9l-10 4c0-2 13-11 17-12s16-8 17-10-14-9-22-10l-15-1c-10 0-27 6-35 11-10 7-7 2 5-9 16-13 16-13 6-17-14-7-32-6-49 2-8 4-18 13-21 20-1 2-3 3-7 4l-5 2 5-7c9-13 59-64 74-76 2-2 2-2 1 2-3 10-1 28 5 33v3l1 1a130 130 0 0 0 21 17c10 6 11 7 12 5 2-3 2-9 1-21-1-9-1-9 1-5 12 31 12 31 17 35 6 6 18 13 22 15 4 1 9-1 7-3v-2c1 0 1-3-1-7-5-16-7-23-5-25 1-1 2 0 4 7 3 11 8 18 20 30 14 13 29 22 31 18 2-2 0-10-6-25l-3-11c1 0 3 3 4 8 4 10 16 25 28 34 6 6 8 6 14 7h7l-3-9c-3-8-4-13-3-14l7 10c6 9 7 10 16 15 8 5 11 6 15 6 7 0 7-2-1-12l-5-8c-1-4-1-4 2-2l4 3c0 1 3 5 8 9 8 8 17 12 26 13l5 1-5-7-5-7 11 7c12 6 21 9 23 7l-1-6-2-3 9 5c11 6 8 5 43 3l19-2-4-3a419 419 0 0 0-48-28c-5 0-6-1-2-4 2-1 2-2 0-3-6-3-16-5-22-4-11 2-13 0-2-3 13-4 12-6-4-10-10-3-25-5-30-4-3 1-3 0-1-2 1-1 4-3 7-3h8c11-1-14-14-27-15h-21c-3-1-3-1 4-3 16-5 17-5 14-8-7-8-31-13-47-10-14 3-16 1-4-3 6-2 12-6 13-8 2-2-19-12-26-12-8-1-20 1-26 6l-10 5-4 1 5-3c2-2 5-4 4-5l1 1c1 1 1 1 2-1 0-1 2-3 4-3l18-11-6-3c-31-13-41-14-59-2-9 6-16 9-11 5l7-6 6-4 16-12c1-1-9-5-20-8a52 52 0 0 0-54 14c-7 6-12 10-13 9 0-2 72-69 74-68l-1 10v14l-1 5c-1 0-1 0 0 0 2 0 3 1 3 2 2 5 11 14 17 18l8 7 3 2c3 0 5-6 5-17 0-12 1-15 2-6l2 5v-2l3 6c4 12 10 22 19 28 6 3 7 4 8 3 1-2 1-11-1-21-2-12 0-13 3-1l5 13 10 9 15 12c8 5 9 5 10 3s1-6-1-12l-3-9 5 8c7 9 14 17 20 20 3 2 5 2 7 1 3-2 3-3 1-10-2-10-2-10 3-3 6 10 23 22 31 21 3 0 2-1-2-11-3-6 0-5 5 3 5 6 7 8 13 10 11 5 13 3 8-6-3-5-2-5 4 2l4 4h1c1 1 16 5 16 3v-3c-2-2-1-2 3 0 7 5 31 5 48 2l7-2-5-3-7-5c-31-20-40-25-45-26-7-1-8-1-3-2 3 0 4-1 4-2 0-3-7-7-13-7l-14-2-9-1 7-1c9-2 9-4 2-8-10-6-16-7-26-7-13 0-13-1-3-3 11-2 11-4 2-9-12-5-25-7-34-5-12 2-9-1 3-5 13-3 14-5 2-11-11-5-22-6-35-2-16 5-13 1 6-6l11-5-9-6c-13-6-24-7-38-3l-10 2 10-7 10-7-8-5c-10-5-23-7-31-5-9 2-24 13-28 20-2 2-4 4-8 5l-5 1a407 407 0 0 1 67-53c8-7 11-8 9-3-3 4-3 19 0 25 3 5 13 14 20 19 4 2 5 2 7 0v-10c-1-11-1-11 3-2 3 9 10 21 12 21l2 3c0 2 7 6 9 4l2-7c-1-7 1-8 3-1 3 7 5 10 12 15 11 7 15 7 13-1-2-4-3-17-2-17l2 8c2 11 14 23 25 26 4 1 5 0 2-8l-1-7 6 7c5 8 10 12 16 13 5 0 5-1 3-5-1-3-1-3 2 0 5 5 12 9 17 10 3 0 4 0 3-2 0-2 0-2 3 0 2 3 3 3 4 2h8c7 1 28 1 37-1l8-1-8-5-25-16c-16-11-17-12-24-12l-9-1 5-1 6-1-3-3c-3-4-15-9-20-9l-7-1c-3-1-4-1-1-2h6c6 1 5-3-2-7-9-6-13-7-20-7-10 0-12-3-2-4l7-2c2-4-18-12-29-12h-7l8-3 8-2-7-4-15-7c-7-3-9-3-17-1h-5l11-4 7-3c0-2-26-11-30-11-7-1-25 8-28 14l-5 2c-3 1-3 1 3-4 13-10 48-33 53-33l-1 6c-1 3 0 5 1 4l1 2c-1 7 4 15 17 23 5 4 7 5 6 3h2l10 8c8 6 8 6 8 3v-14l2 8c2 7 3 8 9 12l11 5 5 1-2-6v-2c5 9 17 16 20 11v-3l-1-1 5 4c5 5 12 8 12 5 0-2 0-2 4 1s6 3 10 2l5-1c5 3 43 2 44-1 1-1 1-1 0 0-1 0-3 0-5-3l-22-14-17-11c3-1-8-6-14-7-6 0-7 0-3-1l3-2c1-1-11-8-16-8l-8-2 3-1c4-1 6-2 5-3-1-3-17-12-21-12-3 0-4-1-5-3-1-3-5-6-24-17-8-5-13-4-25 3l-11 5c-1-1 6-6 17-13 18-12 25-15 25-14v7c1 8 4 11 19 22 12 7 12 7 12 0 0-6 1-7 3-1 2 5 7 11 14 15s10 4 9-1c-2-5-1-5 2 0 4 5 14 11 17 10l4 1c4 4 10 4 10 1 0-1 1-1 5 1 4 3 8 4 17 4h12l3-2-1-1-2-1c2-1-21-22-26-24-3-1-4-2-3-3 3-1-7-8-15-9-1 0-2-1-1-2l-1-3c-3-5-20-11-24-10h-4l5-2 5-2-6-2-5-4c0-1-3-4-8-7-9-6-13-6-23 1-7 6-9 8-11 7-1-1 20-14 31-20 2-1 2-1 5 4 3 3 5 6 11 8l14 10c6 4 7 5 10 4 2 0 4 0 9 4s6 4 6 2c1-1 2-1 7 2 9 5 34 10 35 7 1-1-10-12-25-26a267 267 0 0 0-45-29c-7 2-3-2 6-6l1 2c1 2 5 4 14 10 11 6 27 13 27 12 1-1 3 0 5 2 6 5 37 11 36 7-1-2-22-22-33-29a302 302 0 0 1-22-18c3-1 3-1 8 4 6 5 10 8 13 7l7 4c4 3 7 4 8 3l7 3c6 3 13 4 14 1 1-2-1-5-7-8l-7-4c-3-2 1-2 8 0 3 2 7 2 11 1 9-3 9-4 1-8-9-4-7-6 3-3 7 2 11 2 13-2 1-3 0-3-4-5l-5-4h3c4 2 13 3 19 2 5-1 5-3 0-4l-4-1h3l8-2 6-1v-3c-1-2-1-2-3-2l-2-1h5c2 1 6 0 10-1l25-13c0-1 2-3 5-4 4-3 7-7 4-8h-13ZM940 82l1-2 2-2-3 4Zm-126 46-2-2h1l1 2Zm-375 27-3-2h1l2 2Zm-87 141 2 2-3-1-4-4-1-2 2 1 4 4Zm236 161h-1c-2-2-1-3 0-3l1 3ZM147 269c0 3 0 3-1 0l-1-3c1-1 1 0 2 3Zm66 101c-1 1-1 0-1-1v-4c1-1 1 0 1 1v4Zm-5 214c2 4 13 11 19 12l10 2 6 1-4 1c-5 2-17 2-20 1-5-3-7-2-7 8 0 7-1 10-5 18l-7 9v-3c3-7 7-23 6-32 0-5-1-14-3-20-3-10-3-10 0-5l5 8Zm35 91-33 37-1-3c-2-4-2-4 6-13 7-9 16-24 17-30 2-12 0-34-5-44-3-7-2-7 3 1 7 10 21 14 35 12 6-1 11 0 11 2l-33 38Zm377 222-4-1c-1-1-1-1 1-1 4 1 6 2 3 2Z"/></svg>