<svg xmlns="http://www.w3.org/2000/svg" viewBox="0 0 60 60"><path d="M19.26 18.72a1.45 1.45 0 0 1 1.65.5c.2.26.22.35.22.88 0 .55-.03.63-.23.9-.6.79-1.77.79-2.37 0-.27-.35-.35-1.12-.16-1.5.17-.32.54-.65.89-.78Z"/><path d="M9.2 18.85c.62-.3 1.33-.13 1.75.44.2.26.23.36.23.81 0 .46-.03.56-.23.82a1.4 1.4 0 0 1-2.4-.23c-.32-.68-.04-1.49.65-1.84Z"/><path fill-rule="evenodd" d="M26.41 9.08c.6-.2 1.15.66 1.24 1.91.05.64-.24 2.9-.5 3.91a5.8 5.8 0 0 1-1.4 2.6l-.56.6.34.68c.53 1.07 1.2 3.25 1.2 3.9 0 .1.07.18.18.2.74.16 5.14 1.41 6.26 1.8 3.75 1.23 6.13 2.55 8.44 4.63a20.05 20.05 0 0 1 5.52 9.1c.6 2.36.61 5 .05 7.36-.09.34-.14.63-.13.65.04.03.8-1.19 1.3-2.15.5-.9 1.04-2.06 1.52-3.2l.21-.52.57.2c.57.2 1.59.7 2.08.98.56.34 1.54 1.16 2.1 1.75l.57.6-.37.69a30.53 30.53 0 0 1-5.27 7.11c-2.37 2.3-4.85 3.72-7.4 4.22l-.46.1.32.14c.34.15.63.52.8 1.04.12.34-.02.33 1.22.11.53-.08.57-.1.97-.55.54-.6 2.35-2.05 2.44-1.96.04.04-.04.31-.16.63-.2.48-.71 2.14-.71 2.3 0 .09.64.25.7.18.03-.03.49-.63 1-1.32 1.6-2.14 2.75-3.18 4.4-4 .74-.39.86-.38.57.05a29.1 29.1 0 0 0-1.55 2.86 21.6 21.6 0 0 0-1.11 2.78c.01.04.32-.14.68-.4.92-.68 1.87-1.2 2.66-1.49a9.22 9.22 0 0 1 2.67-.61l.4.02-.7.5c-.39.27-1 .78-1.37 1.12-.68.64-1.65 1.83-1.6 1.98.01.04.43.18.91.3l.46.12H30.25c.35-.34.86-.78 1.33-1.12.01-.02.01-.04-.01-.07-.08-.07-.88.29-1.42.65-.22.15-.47.36-.64.54h-1.8c.22-.36.57-.83.9-1.16a6.6 6.6 0 0 1 2.26-1.46l.6-.26H31c-1.5 0-3.39 1.06-3.92 2.17-.08.18-.14.46-.15.71H11.22c.4-.34 1.01-.8 1.6-1.16.5-.3.5-.41-.02-.3-.65.15-1.58.72-2.43 1.46H0a9.34 9.34 0 0 1 3.3-1.01l.81-.1-.44-.86a13.74 13.74 0 0 0-2.5-3.64c-.36-.37-.58-.65-.5-.65a11.3 11.3 0 0 1 5.98 3.9c.05-.05-.85-3.47-1.1-4.2a12.08 12.08 0 0 0-1.38-2.8c0-.08.65.28 1.15.64a11.1 11.1 0 0 1 2.75 3.35l.4.7.05-.27.6-2.64c1.36-5.96 2.41-11.18 2.41-11.9 0-.1-.18-.56-.4-1.01-.8-1.64-1.4-3.4-1.68-4.9-.15-.84-.21-3.17-.1-4.06l.07-.44-.96-.48c-2.26-1.13-4.28-3.15-5-5-.58-1.47-.32-3.38.8-5.9.21-.47.38-.87.38-.9 0-.02-.2-.33-.47-.67a9.14 9.14 0 0 1-1.73-6.27c.1-.9.25-1.33.57-1.6.32-.27.58-.24 1.71.15 1.09.38 1.48.56 2.12 1 .43.3 1.38 1.24 1.7 1.69l.16.22.77-.36c1.63-.76 3.04-1.03 5.43-1.03 2.17 0 3.28.18 5.26.85l.86.28c.02 0 .29-.21.59-.48a13.43 13.43 0 0 1 4.8-2.53Zm-2.66 48.8c.48-.4.44-.46-.1-.17-.77.41-1.39 1.04-1.39 1.42 0 .14.1.08.54-.36l.95-.88Zm3.6-19.58c-.03-.02-.08.16-.11.4-.38 3.39-.56 4.26-1.29 6.23a36.33 36.33 0 0 1-4.56 8.81 250.66 250.66 0 0 1-2.57 3.8s.24.02.53.02c.6.01 1.2.18 1.62.47l.28.19v-.31c0-.42.14-1.08.3-1.41.19-.36.8-.92 1.16-1.07 1.12-.48 3.44-.7 4.76-.46.17.03.05-.08-.5-.46-1.37-.92-2.62-2.27-2.83-3.06-.1-.39-.06-.52.56-1.57a22.1 22.1 0 0 0 2.1-5.03c.47-1.76.77-4.48.66-5.87a2.18 2.18 0 0 0-.11-.68Zm-10.28 2.12c-.45-.82-.67-1.15-.68-1.03 0 .04.32 1.06.7 2.27l.71 2.2-.24.68c-.3.79-1.38 3.14-2 4.33-.74 1.38-3.5 6.28-4.28 7.6a3.8 3.8 0 0 0-.36.7c.02 0 .26 0 .54-.05.28-.04.94-.08 1.48-.11 1.55-.08 1.45-.04 1.8-.74a53.55 53.55 0 0 0 2.75-6.7 49.78 49.78 0 0 0 1.41-5.45c.08-.6.08-.62-.14-.94a43 43 0 0 1-1.69-2.76Zm19.72-2.84a8.3 8.3 0 0 0-3.25-.14c-1.82.38-3.14 1.37-4.5 3.37-.45.65-1 1.81-1.13 2.35-.58 2.43-.37 4.93.63 7.36 1 2.41 3.13 4.84 4.9 5.58.29.13.55.21.56.19.03-.02-.13-.19-.34-.37a13.17 13.17 0 0 1-4.38-6.35c-.8-2.67-.73-5.16.18-7.08 1.07-2.23 2.63-3.66 4.59-4.2.63-.16 1.9-.23 2.67-.12.53.07 1.6.33 2.1.53.16.06.16.06.02-.11a6.46 6.46 0 0 0-2.05-1Zm-17.52-11.6c-.02-.18-.1-.12-.7.52a5.16 5.16 0 0 1-2.28 1.53c-.66.26-.8.28-1.76.31-.77.02-1.17 0-1.61-.1a6.65 6.65 0 0 1-2.24-1.09c-.79-.62-.74-.6-.6-.24.56 1.35 2.15 2.32 4 2.45 2.14.13 4.17-.97 4.99-2.7.12-.28.22-.58.2-.68Zm-5.08-1.55c-.82 0-1.48.02-1.46.06l.21.55c.17.4.24.5.41.54.17.03.3.17.54.63.23.42.35.56.4.5a4 4 0 0 0 .42-.58c.22-.37.37-.53.54-.58.2-.05.24-.12.33-.5.05-.23.1-.47.1-.53 0-.07-.35-.1-1.49-.1Zm6.61-7.48a3.92 3.92 0 0 0-2.27-.08c-.53.18-1.2.7-1.5 1.16a3.13 3.13 0 0 0-.59 2c0 .83.15 1.32.6 2 .74 1.14 2.52 1.56 3.84.92a3.24 3.24 0 0 0 1.76-2.75c.08-1.47-.62-2.7-1.84-3.25Zm-9.85.25a2.9 2.9 0 0 0-3.4.66c-.57.61-.82 1.18-.86 2-.04.85.08 1.38.46 1.97a3.02 3.02 0 0 0 5.47-1.27c.17-1.49-.47-2.78-1.67-3.36Z" clip-rule="evenodd"/><path d="M52.58 31.82c.34 0 2.52.41 3.12.6.66.19 2.98 1.28 3.12 1.46.2.26-1 4.4-1.8 6.2l-.23.52-.44-.42a10.29 10.29 0 0 0-4.57-2.5c-.38-.09-.7-.2-.7-.24a99.3 99.3 0 0 0 1.1-4.43c.22-.98.3-1.2.4-1.2Z"/><path d="M54.26 22.65c1.53-.23 3.94-.03 5.3.43l.41.14.03.55c.04.88-.35 5.7-.5 6.14-.02.06-.24 0-.68-.2a10.85 10.85 0 0 0-4.7-1.1l-1.4-.04.04-.24c.02-.14.07-1.42.1-2.85l.05-2.6.32-.06c.18-.04.64-.1 1.03-.17Z"/><path d="M39.23 15.83c.2.05.6.13.88.16 1.1.1 1.79.56 2.21 1.47.61 1.32.4 2.88-.54 3.82-.46.46-1.35.9-2.15 1.07-.68.15-1.97.11-2.67-.08a7.32 7.32 0 0 1-4.01-2.83l-.27-.4.49-.06a8.47 8.47 0 0 0 3.64-1.2 6.29 6.29 0 0 0 1.8-1.66l.25-.4.37.1Z"/><path d="M57.5 11.43c.9-.2.82-.25 1.14.74a24.36 24.36 0 0 1 1.15 6.84 2.6 2.6 0 0 1-.76-.1 12.54 12.54 0 0 0-5.56.25c-.5.14-.93.23-.94.22l-.22-1.14a25.17 25.17 0 0 0-.91-3.41c-.09-.22-.14-.43-.11-.48a17.07 17.07 0 0 1 6.22-2.92Z"/><path d="M32.05 5.64c.04 0 .27.25.52.57a13.49 13.49 0 0 0 4.2 3.21c.5.24.83.44.81.5a5.18 5.18 0 0 0-.37 4.1l-.5.21c-2.03.85-4.23 1.13-5.68.72-.42-.12-.46-.16-.58-.45a9.8 9.8 0 0 1-.16-5.62c.23-.9.82-2.14 1.33-2.79.2-.24.39-.45.43-.45Z"/><path d="M50.18 1.95A13.27 13.27 0 0 1 54.55 5c.72.75 1.95 2.35 1.9 2.47a10.62 10.62 0 0 0-2.63.9c-1.2.6-3 1.99-3.67 2.84-.14.19-.29.33-.32.31a7.5 7.5 0 0 1-.54-.63 11.4 11.4 0 0 0-2.7-2.43 2.6 2.6 0 0 1 .18-.86c.68-2.3 1.5-3.8 2.8-5.09l.6-.56Z"/><path d="M41.14.07c1.15-.15 3.22-.05 4 .19.1.03.05.18-.26.8-.79 1.61-1.11 3-1.11 4.87v1.28h-1.03a6.16 6.16 0 0 0-2.76.5c-.13.08-.3.13-.36.13a6.7 6.7 0 0 1-1.04-.92 10.81 10.81 0 0 1-2.71-4.16l-.2-.57.36-.27a12.6 12.6 0 0 1 5.1-1.85Z"/></svg>
