<svg width="32" height="28" viewBox="0 0 32 28" xmlns="http://www.w3.org/2000/svg">
<path d="M23.3199 9.34928C24.3013 8.36787 25.2756 6.0779 21.1864 8.85857C17.3664 11.4875 13.5206 14.0787 9.64943 16.6316C9.05994 16.8982 8.42265 17.0429 7.77585 17.0569C7.12905 17.071 6.48608 16.9541 5.88557 16.7134C3.43203 15.9774 0.567796 14.996 0.567796 14.996C0.567796 14.996 -1.38792 13.7674 1.95991 12.4589C1.95991 12.4589 16.114 6.65039 21.0228 4.604C22.9038 3.78616 29.2848 1.16906 29.2848 1.16906C29.2848 1.16906 32.2308 0.0222971 31.9855 2.80475C31.9037 3.94973 31.2494 7.96072 30.5951 12.2953C29.612 18.4309 28.5488 25.1408 28.5488 25.1408C28.5488 25.1408 28.3852 27.0218 26.9949 27.349C25.5065 27.3238 24.0685 26.8061 22.9056 25.8768C22.5785 25.6315 16.77 21.9494 14.6418 20.1502C14.4254 20.0035 14.2495 19.8045 14.1306 19.5716C14.0117 19.3387 13.9536 19.0796 13.9618 18.8182C13.9699 18.5569 14.044 18.3018 14.1773 18.0768C14.3105 17.8518 14.4984 17.6641 14.7236 17.5313C17.6425 14.8607 20.5085 12.1328 23.3199 9.34928Z" />
</svg>
