<svg width="32" height="33" viewBox="0 0 32 33" xmlns="http://www.w3.org/2000/svg">
<path d="M20.5361 17.7357C20.7103 17.7357 21.3824 18.0469 22.5523 18.6692C23.7223 19.2915 24.3446 19.6649 24.4193 19.7893C24.4441 19.8391 24.4566 19.9387 24.4566 20.088C24.4566 20.5361 24.3446 21.0464 24.1206 21.6189C23.8965 22.1914 23.3987 22.6644 22.627 23.0377C21.8554 23.4111 21.1459 23.5978 20.4987 23.5978C19.7022 23.5978 18.3829 23.1622 16.5409 22.291C15.1718 21.6687 13.9894 20.8472 12.9937 19.8267C11.998 18.8061 10.9775 17.5241 9.93199 15.9808C8.91141 14.4873 8.41357 13.1431 8.43846 11.9483V11.7616C8.48824 10.517 8.99853 9.4217 9.96933 8.4758C10.3178 8.17709 10.6788 8.02774 11.0521 8.02774C11.1517 8.02774 11.2762 8.04019 11.4255 8.06508C11.5749 8.08997 11.7118 8.10242 11.8362 8.10242C12.1101 8.10242 12.2968 8.13976 12.3963 8.21443C12.4959 8.28911 12.5955 8.48825 12.695 8.81185C12.8195 9.08566 13.056 9.69552 13.4045 10.6414C13.7529 11.5873 13.9272 12.0976 13.9272 12.1723C13.9272 12.471 13.6907 12.8817 13.2178 13.4045C12.7448 13.9272 12.4959 14.2508 12.471 14.3753C12.471 14.4499 12.5083 14.5495 12.583 14.674C13.056 15.6945 13.7654 16.6404 14.7113 17.5117C15.483 18.2584 16.5284 18.9679 17.8477 19.64C18.022 19.7395 18.1962 19.7893 18.3704 19.7893C18.5447 19.7893 18.9056 19.4533 19.4533 18.7812C20.0009 18.1091 20.3618 17.7606 20.5361 17.7357ZM16.2795 28.7879C18.0469 28.7879 19.7395 28.4394 21.3575 27.7424C22.9755 27.0454 24.3695 26.1244 25.5394 24.9793C26.7093 23.8343 27.6428 22.4403 28.3398 20.7974C29.0368 19.1546 29.3853 17.4619 29.3853 15.7194C29.3853 13.977 29.0368 12.2843 28.3398 10.6414C27.6428 8.99854 26.7093 7.60457 25.5394 6.45953C24.3695 5.31449 22.9755 4.38103 21.3575 3.65916C19.7395 2.93728 18.0469 2.58879 16.2795 2.61368C14.5122 2.63858 12.8319 2.98707 11.2388 3.65916C9.64573 4.33125 8.25177 5.2647 7.05694 6.45953C5.86211 7.65436 4.92866 9.04832 4.25657 10.6414C3.58448 12.2345 3.23599 13.9272 3.21109 15.7194C3.21109 18.5323 4.04498 21.0837 5.71276 23.3738L4.06988 28.2278L9.11055 26.6222C11.3011 28.066 13.6907 28.7879 16.2795 28.7879ZM16.2795 0C18.4202 0 20.4614 0.423168 22.403 1.2695C24.3446 2.11584 26.0124 3.22354 27.4063 4.59261C28.8003 5.96169 29.9204 7.64191 30.7668 9.63329C31.6131 11.6247 32.0238 13.6534 31.9989 15.7194C31.974 17.7855 31.5633 19.8142 30.7668 21.8056C29.9702 23.797 28.8501 25.4647 27.4063 26.8089C25.9626 28.1531 24.2948 29.2732 22.403 30.1694C20.5112 31.0655 18.47 31.4887 16.2795 31.4389C13.5911 31.4389 11.0646 30.7792 8.69983 29.4599L0 32.2603L2.83771 23.8219C1.34418 21.3575 0.597413 18.6567 0.597413 15.7194C0.597413 13.5787 1.00813 11.55 1.82958 9.63329C2.65102 7.71659 3.77117 6.03636 5.19003 4.59261C6.60888 3.14887 8.27666 2.04116 10.1934 1.2695C12.1101 0.497844 14.1388 0.0746767 16.2795 0Z" />
</svg>
