<svg width="29" height="29" viewBox="0 0 29 29" xmlns="http://www.w3.org/2000/svg">
<path d="M24.3995 1.06487C24.79 0.674343 25.4232 0.674343 25.8137 1.06487L27.935 3.18619C28.3256 3.57671 28.3256 4.20988 27.935 4.6004L4.60052 27.9349C4.21 28.3254 3.57683 28.3254 3.18631 27.9349L1.06499 25.8136C0.674464 25.4231 0.674464 24.7899 1.06499 24.3994L24.3995 1.06487Z" />
<path d="M27.935 24.3994C28.3256 24.7899 28.3256 25.4231 27.935 25.8136L25.8137 27.9349C25.4232 28.3254 24.79 28.3254 24.3995 27.9349L1.06499 4.6004C0.674464 4.20988 0.674464 3.57671 1.06499 3.18619L3.18631 1.06487C3.57683 0.674342 4.21 0.674342 4.60052 1.06487L27.935 24.3994Z" />
</svg>
